<svg width="24" height="24" viewBox="0 0 24 24" fill="none" xmlns="http://www.w3.org/2000/svg">
<path d="M2 2H8.4V4H4V8.4H2V2Z" fill="currentColor"/>
<path d="M20 20V15.6H22V22H15.6V20H20Z" fill="currentColor"/>
<path d="M22 2V8.4H20V4L15.6 4V2H22Z" fill="currentColor"/>
<path d="M4 20H8.4V22H2V15.6H4L4 20Z" fill="currentColor"/>
<path fill-rule="evenodd" clip-rule="evenodd" d="M11.5 12C11.5 13.933 9.933 15.5 8 15.5C6.067 15.5 4.5 13.933 4.5 12C4.5 10.067 6.067 8.5 8 8.5C9.933 8.5 11.5 10.067 11.5 12ZM9.5 12C9.5 12.8284 8.82843 13.5 8 13.5C7.17157 13.5 6.5 12.8284 6.5 12C6.5 11.1716 7.17157 10.5 8 10.5C8.82843 10.5 9.5 11.1716 9.5 12Z" fill="currentColor"/>
<path d="M14.4142 11.9144L12.5 10.0002L13.9142 8.58594L15.8284 10.5002L17.7427 8.58594L19.1569 10.0002L17.2426 11.9144L19.2175 13.8892L17.8033 15.3035L15.8284 13.3286L13.8536 15.3035L12.4394 13.8892L14.4142 11.9144Z" fill="currentColor"/>
</svg>
