<svg width="24" height="24" viewBox="0 0 24 24" fill="none" xmlns="http://www.w3.org/2000/svg">
<path fill-rule="evenodd" clip-rule="evenodd" d="M6 11.5C6 6.80558 9.80558 3 14.5 3C19.1944 3 23 6.80558 23 11.5C23 13.4869 22.3183 15.3145 21.176 16.7618L23.9143 19.5001L22.5001 20.9143L19.7618 18.176C18.3145 19.3183 16.4869 20 14.5 20C9.80558 20 6 16.1944 6 11.5ZM14.5 5C10.9101 5 8 7.91015 8 11.5C8 15.0899 10.9101 18 14.5 18C18.0899 18 21 15.0899 21 11.5C21 7.91015 18.0899 5 14.5 5Z" fill="currentColor"/>
<path d="M5 7H0V5H5V7Z" fill="currentColor"/>
<path d="M0 13H4V11H0V13Z" fill="currentColor"/>
<path d="M0 19H6V17H0V19Z" fill="currentColor"/>
</svg>
