<svg width="24" height="24" viewBox="0 0 24 24" fill="none" xmlns="http://www.w3.org/2000/svg">
<path fill-rule="evenodd" clip-rule="evenodd" d="M19.6455 5.23436C18.8055 4.42643 17.6804 3.98297 16.515 4.0005L16.5072 4.00062C15.7958 4.00574 15.0934 4.16081 14.446 4.45576C13.7985 4.7507 13.2205 5.17887 12.7498 5.7123L11.9966 6.56573L11.2473 5.70894C10.7795 5.17408 10.2031 4.74507 9.55644 4.45049C8.91022 4.1561 8.20871 4.00274 7.4986 4.00061H7.4C6.23305 4.00061 5.11389 4.46418 4.28873 5.28934C3.46357 6.1145 3 7.23366 3 8.40061C3 9.81756 3.56935 11.2332 5.094 13.0435C6.98836 15.146 9.02633 17.1146 11.1932 18.9349L11.2056 18.9453L12.0055 19.6624L12.787 18.9731L12.7957 18.9659C14.9614 17.1412 17.0023 15.1732 18.9044 13.0752C20.4314 11.2329 21 9.81681 21 8.40061V8.30319C20.9693 7.14217 20.4828 6.03969 19.6455 5.23436ZM22.9997 8.26674C22.9593 6.57435 22.2521 4.96642 21.032 3.7929C19.8128 2.62029 18.1802 1.97626 16.4889 2.00067C15.4976 2.00836 14.519 2.22473 13.6168 2.63572C13.0336 2.9014 12.4908 3.24455 12.0026 3.65468C11.5143 3.2419 10.9704 2.8969 10.3856 2.63045C9.4803 2.21805 8.49751 2.00333 7.50273 2.00062L7.4 2.00061C5.70261 2.00061 4.07475 2.6749 2.87452 3.87513C1.67428 5.07536 1 6.70323 1 8.40061C1 10.4605 1.86809 12.3216 3.57571 14.3455L3.58611 14.3578L3.5969 14.3698C5.55276 16.5417 7.65698 18.5753 9.89438 20.4559L11.9945 22.3388L14.093 20.488C16.3297 18.603 18.4371 16.5697 20.4011 14.402L20.4155 14.3861L20.4292 14.3696C21.8575 12.6504 23.0271 10.5646 22.9997 8.26674Z" fill="currentColor"/>
</svg>
