<svg width="24" height="24" viewBox="0 0 24 24" fill="none" xmlns="http://www.w3.org/2000/svg">
  <path fill-rule="evenodd" clip-rule="evenodd" d="M17.3357 16.37C17.1795 16.3703 17.0282 16.3159 16.9079 16.2163L13.8863 13.696H12.6562C11.2379 13.696 9.87756 13.1326 8.87462 12.1296C7.87167 11.1267 7.30822 9.76639 7.30822 8.34801C7.30822 6.92963 7.87167 5.56934 8.87462 4.5664C9.87756 3.56345 11.2379 3 12.6562 3H16.6672C17.9662 3.00371 19.2195 3.48008 20.1929 4.34016C21.1664 5.20024 21.7936 6.38523 21.9573 7.67387C22.1211 8.9625 21.8102 10.2667 21.0827 11.3429C20.3553 12.4191 19.261 13.1938 18.0042 13.5222V15.7015C18.0046 15.8294 17.9682 15.9547 17.8995 16.0625C17.8308 16.1703 17.7326 16.2562 17.6165 16.3099C17.5284 16.35 17.4326 16.3705 17.3357 16.37ZM12.6562 4.337C11.5924 4.337 10.5722 4.75959 9.82002 5.5118C9.06781 6.26401 8.64522 7.28423 8.64522 8.34801C8.64522 9.4118 9.06781 10.432 9.82002 11.1842C10.5722 11.9364 11.5924 12.359 12.6562 12.359H14.1269C14.2831 12.3587 14.4345 12.4131 14.5548 12.5128L16.6672 14.2709V12.974C16.6656 12.8118 16.7231 12.6546 16.8289 12.5316C16.9346 12.4086 17.0815 12.3282 17.2422 12.3055C18.2301 12.1436 19.1217 11.6182 19.7419 10.8323C20.3622 10.0465 20.6661 9.05719 20.5941 8.0587C20.522 7.0602 20.0792 6.12474 19.3526 5.4361C18.626 4.74745 17.6682 4.35541 16.6672 4.337H12.6562ZM15.3303 7.67952H13.9933V9.01653H15.3303V7.67952ZM10.6507 7.67952H11.9877V9.01653H10.6507V7.67952ZM18.6728 7.67952H17.3358V9.01653H18.6728V7.67952ZM6.35896 21.6578C6.44709 21.698 6.54289 21.7185 6.63973 21.718C6.79593 21.7183 6.9473 21.6639 7.06757 21.5642L10.0892 19.044H11.3192C12.0334 19.0437 12.7403 18.9005 13.3982 18.6226C14.0561 18.3448 14.6516 17.938 15.1498 17.4262C15.2112 17.363 15.2596 17.2883 15.2922 17.2064C15.3248 17.1245 15.3409 17.0369 15.3397 16.9488C15.3384 16.8606 15.3198 16.7736 15.285 16.6926C15.2501 16.6117 15.1996 16.5384 15.1364 16.4769C15.0732 16.4155 14.9985 16.3671 14.9166 16.3345C14.8347 16.3019 14.7471 16.2858 14.659 16.287C14.481 16.2895 14.3112 16.3626 14.1871 16.4903C13.8158 16.876 13.3703 17.1825 12.8775 17.3916C12.3846 17.6007 11.8546 17.708 11.3192 17.707H9.84854C9.68894 17.7141 9.53716 17.7781 9.4207 17.8875L7.30823 19.6456V18.3487C7.30983 18.1865 7.25239 18.0293 7.14661 17.9063C7.04084 17.7833 6.89395 17.7029 6.73332 17.6802C5.87646 17.5535 5.08363 17.1528 4.47341 16.5381C3.86318 15.9234 3.46836 15.1276 3.34797 14.2699C3.22758 13.4121 3.3881 12.5384 3.80552 11.7794C4.22294 11.0204 4.87484 10.417 5.66372 10.0593C5.74908 10.027 5.82692 9.97761 5.89245 9.91409C5.95799 9.85058 6.00982 9.77432 6.04476 9.69002C6.07971 9.60571 6.09702 9.51515 6.09563 9.4239C6.09425 9.33265 6.07419 9.24265 6.0367 9.15944C5.99922 9.07624 5.94509 9.00159 5.87766 8.9401C5.81023 8.8786 5.73092 8.83157 5.64462 8.80189C5.55832 8.77221 5.46686 8.76052 5.37587 8.76752C5.28488 8.77453 5.19629 8.8001 5.11555 8.84264C4.11527 9.30215 3.28115 10.0591 2.72703 11.0103C2.17291 11.9614 1.92578 13.0603 2.01937 14.1571C2.11296 15.2539 2.54272 16.2951 3.24998 17.1386C3.95724 17.9821 4.90756 18.5868 5.97123 18.8702V21.0495C5.97092 21.1773 6.00727 21.3026 6.076 21.4104C6.14472 21.5183 6.24292 21.6041 6.35896 21.6578Z" fill="currentColor"/>
</svg>