<svg width="24" height="24" viewBox="0 0 24 24" fill="none" xmlns="http://www.w3.org/2000/svg">
<path d="M14.865 3.11998C14.6417 3.07694 14.4105 3.12148 14.2192 3.24436C14.0279 3.36724 13.8912 3.55904 13.8375 3.77998C13.7099 4.16016 13.461 4.48792 13.129 4.71285C12.7971 4.93779 12.4004 5.04745 12 5.02498C11.5959 5.04553 11.1963 4.93154 10.8638 4.70085C10.5313 4.47015 10.2847 4.13576 10.1625 3.74998C10.1088 3.52904 9.97213 3.33724 9.78083 3.21436C9.58952 3.09148 9.35826 3.04694 9.135 3.08998C4.305 3.96748 1.1925 7.06498 0.997501 11.1675C0.990888 11.2886 1.00947 11.4098 1.05207 11.5234C1.09467 11.637 1.16036 11.7406 1.245 11.8275C1.32816 11.9149 1.4282 11.9846 1.53907 12.0323C1.64993 12.08 1.76931 12.1047 1.89 12.105H5.145V18.4875C5.139 19.1187 5.38351 19.7266 5.82496 20.1779C6.2664 20.6292 6.86876 20.8871 7.5 20.895H16.5C17.1312 20.895 17.7367 20.6447 18.1838 20.1991C18.6309 19.7534 18.883 19.1487 18.885 18.5175V12.135H22.14C22.2607 12.1347 22.3801 12.11 22.4909 12.0623C22.6018 12.0146 22.7018 11.9449 22.785 11.8575C22.8696 11.7706 22.9353 11.667 22.9779 11.5534C23.0205 11.4398 23.0391 11.3186 23.0325 11.1975C22.8075 7.09498 19.695 3.99748 14.865 3.11998ZM18.855 10.3425V9.74998C18.8345 9.52643 18.7313 9.3186 18.5654 9.16727C18.3996 9.01595 18.1832 8.93205 17.9588 8.93205C17.7343 8.93205 17.5179 9.01595 17.3521 9.16727C17.1862 9.3186 17.083 9.52643 17.0625 9.74998V18.5175C17.0606 18.674 16.9975 18.8236 16.8868 18.9343C16.7761 19.045 16.6265 19.108 16.47 19.11H7.5C7.34346 19.108 7.19389 19.045 7.08319 18.9343C6.97249 18.8236 6.90945 18.674 6.9075 18.5175V9.74998C6.88703 9.52643 6.78375 9.3186 6.61794 9.16727C6.45212 9.01595 6.23574 8.93205 6.01125 8.93205C5.78676 8.93205 5.57038 9.01595 5.40457 9.16727C5.23875 9.3186 5.13547 9.52643 5.115 9.74998V10.365H2.865C3.375 7.75498 5.49 5.86498 8.7225 5.04748C9.06856 5.5959 9.54788 6.04775 10.1157 6.36089C10.6836 6.67402 11.3215 6.83825 11.97 6.83825C12.6185 6.83825 13.2564 6.67402 13.8243 6.36089C14.3921 6.04775 14.8714 5.5959 15.2175 5.04748C18.45 5.79748 20.565 7.75498 21.075 10.365L18.855 10.3425Z" fill="currentColor"/>
</svg>
