<svg width="24" height="24" viewBox="0 0 24 24" fill="none" xmlns="http://www.w3.org/2000/svg">
  <path d="M14.8649 3.11998C14.6416 3.07694 14.4104 3.12148 14.2191 3.24436C14.0278 3.36724 13.8911 3.55904 13.8374 3.77998C13.7098 4.16016 13.4609 4.48792 13.1289 4.71285C12.797 4.93779 12.4003 5.04745 11.9999 5.02498C11.5957 5.04553 11.1962 4.93154 10.8637 4.70085C10.5312 4.47015 10.2846 4.13576 10.1624 3.74998C10.1087 3.52904 9.97203 3.33724 9.78073 3.21436C9.58942 3.09148 9.35816 3.04694 9.1349 3.08998C4.3049 3.96748 1.1924 7.06498 0.997398 11.1675C0.990785 11.2886 1.00937 11.4098 1.05197 11.5234C1.09457 11.637 1.16026 11.7406 1.2449 11.8275C1.32806 11.9149 1.4281 11.9846 1.53896 12.0323C1.64983 12.08 1.76921 12.1047 1.8899 12.105H5.1449V18.4875C5.13889 19.1187 5.38341 19.7266 5.82485 20.1779C6.2663 20.6292 6.86866 20.8871 7.4999 20.895H16.4999C17.1311 20.895 17.7366 20.6447 18.1837 20.1991C18.6308 19.7534 18.8829 19.1487 18.8849 18.5175V12.135H22.1399C22.2606 12.1347 22.38 12.11 22.4908 12.0623C22.6017 12.0146 22.7017 11.9449 22.7849 11.8575C22.8695 11.7706 22.9352 11.667 22.9778 11.5534C23.0204 11.4398 23.039 11.3186 23.0324 11.1975C22.8074 7.09498 19.6949 3.99748 14.8649 3.11998ZM18.8549 10.3425V9.74998C18.8344 9.52643 18.7311 9.3186 18.5653 9.16727C18.3995 9.01595 18.1831 8.93205 17.9586 8.93205C17.7342 8.93205 17.5178 9.01595 17.352 9.16727C17.1861 9.3186 17.0829 9.52643 17.0624 9.74998V18.5175C17.0605 18.674 16.9974 18.8236 16.8867 18.9343C16.776 19.045 16.6264 19.108 16.4699 19.11H7.4999C7.34336 19.108 7.19378 19.045 7.08309 18.9343C6.97239 18.8236 6.90934 18.674 6.9074 18.5175V9.74998C6.88693 9.52643 6.78365 9.3186 6.61783 9.16727C6.45202 9.01595 6.23563 8.93205 6.01115 8.93205C5.78666 8.93205 5.57028 9.01595 5.40446 9.16727C5.23865 9.3186 5.13537 9.52643 5.1149 9.74998V10.365H2.8649C3.3749 7.75498 5.4899 5.86498 8.7224 5.04748C9.06846 5.5959 9.54777 6.04775 10.1156 6.36089C10.6835 6.67402 11.3214 6.83825 11.9699 6.83825C12.6184 6.83825 13.2563 6.67402 13.8242 6.36089C14.392 6.04775 14.8713 5.5959 15.2174 5.04748C18.4499 5.79748 20.5649 7.75498 21.0749 10.365L18.8549 10.3425Z" fill="currentColor"/>
</svg>