<svg width="24" height="24" viewBox="0 0 24 24" fill="none" xmlns="http://www.w3.org/2000/svg">
<path fill-rule="evenodd" clip-rule="evenodd" d="M3 12C3 7.02944 7.02944 3 12 3C16.9706 3 21 7.02944 21 12C21 16.9706 16.9706 21 12 21C7.02944 21 3 16.9706 3 12ZM12 5C8.13401 5 5 8.13401 5 12C5 15.866 8.13401 19 12 19C15.866 19 19 15.866 19 12C19 8.13401 15.866 5 12 5Z" fill="#313438"/>
<path fill-rule="evenodd" clip-rule="evenodd" d="M10.5858 12L7.79289 9.20711L9.20711 7.79289L12 10.5858L14.7929 7.79289L16.2071 9.20711L13.4142 12L16.2071 14.7929L14.7929 16.2071L12 13.4142L9.20711 16.2071L7.79289 14.7929L10.5858 12Z" fill="#313438"/>
</svg>
