<svg width="24" height="24" viewBox="0 0 24 24" fill="none" xmlns="http://www.w3.org/2000/svg">
  <path fill-rule="evenodd" clip-rule="evenodd" d="M8 7C8.55228 7 9 6.55228 9 6C9 5.44772 8.55228 5 8 5C7.44772 5 7 5.44772 7 6C7 6.55228 7.44772 7 8 7ZM8 9C9.30622 9 10.4175 8.16519 10.8293 7H21V5H10.8293C10.4175 3.83481 9.30622 3 8 3C6.69378 3 5.58254 3.83481 5.17071 5H3V7H5.17071C5.58254 8.16519 6.69378 9 8 9ZM15 12C15 11.4477 15.4477 11 16 11C16.5523 11 17 11.4477 17 12C17 12.5523 16.5523 13 16 13C15.4477 13 15 12.5523 15 12ZM13.1707 11C13.5825 9.83481 14.6938 9 16 9C17.3062 9 18.4175 9.83481 18.8293 11H21V13H18.8293C18.4175 14.1652 17.3062 15 16 15C14.6938 15 13.5825 14.1652 13.1707 13L3 13V11L13.1707 11ZM9 18C9 18.5523 8.55228 19 8 19C7.44772 19 7 18.5523 7 18C7 17.4477 7.44772 17 8 17C8.55228 17 9 17.4477 9 18ZM10.8293 19C10.4175 20.1652 9.30622 21 8 21C6.69378 21 5.58254 20.1652 5.17071 19H3V17H5.17071C5.58254 15.8348 6.69378 15 8 15C9.30622 15 10.4175 15.8348 10.8293 17H21V19H10.8293Z" fill="currentColor"/>
</svg>