<svg width="24" height="24" viewBox="0 0 24 24" fill="none" xmlns="http://www.w3.org/2000/svg">
<path d="M9 4H4V9H6V6H9V4Z" fill="#313438"/>
<path d="M15 6H18V9H20V4H15V6Z" fill="#313438"/>
<path fill-rule="evenodd" clip-rule="evenodd" d="M13 8.64494V7H11V8.64494C9.87111 8.98091 8.98091 9.87111 8.64494 11H7V13H8.64494C8.98091 14.1289 9.87111 15.0191 11 15.3551V17H13V15.3551C14.1289 15.0191 15.0191 14.1289 15.3551 13H17V11H15.3551C15.0191 9.87111 14.1289 8.98091 13 8.64494ZM10.5 12C10.5 11.1716 11.1716 10.5 12 10.5C12.8284 10.5 13.5 11.1716 13.5 12C13.5 12.8284 12.8284 13.5 12 13.5C11.1716 13.5 10.5 12.8284 10.5 12Z" fill="#313438"/>
<path d="M6 15H4V20H9V18H6V15Z" fill="#313438"/>
<path d="M18 15V18H15V20H20V15H18Z" fill="#313438"/>
</svg>
