<svg width="24" height="24" viewBox="0 0 24 24" fill="none" xmlns="http://www.w3.org/2000/svg">
<path fill-rule="evenodd" clip-rule="evenodd" d="M4 6C4 4.89543 4.89543 4 6 4H8C8.55228 4 9 4.44772 9 5C9 5.55228 8.55228 6 8 6H6V8C6 8.55229 5.55228 9 5 9C4.44772 9 4 8.55229 4 8V6ZM20 18C20 19.1046 19.1046 20 18 20H16C15.4477 20 15 19.5523 15 19C15 18.4477 15.4477 18 16 18H18V16C18 15.4477 18.4477 15 19 15C19.5523 15 20 15.4477 20 16V18ZM20 6C20 4.89543 19.1046 4 18 4H16C15.4477 4 15 4.44772 15 5C15 5.55228 15.4477 6 16 6L18 6V8C18 8.55228 18.4477 9 19 9C19.5523 9 20 8.55229 20 8V6ZM6 20C4.89543 20 4 19.1046 4 18V16C4 15.4477 4.44772 15 5 15C5.55229 15 6 15.4477 6 16L6 18H8C8.55228 18 9 18.4477 9 19C9 19.5523 8.55228 20 8 20H6ZM13.5 12C13.5 12.8284 12.8284 13.5 12 13.5C11.1716 13.5 10.5 12.8284 10.5 12C10.5 11.1716 11.1716 10.5 12 10.5C12.8284 10.5 13.5 11.1716 13.5 12ZM13 15.3551C14.1289 15.0191 15.0191 14.1289 15.3551 13H16.5C17.0523 13 17.5 12.5523 17.5 12C17.5 11.4477 17.0523 11 16.5 11H15.3551C15.0191 9.87111 14.1289 8.98091 13 8.64494V7.5C13 6.94772 12.5523 6.5 12 6.5C11.4477 6.5 11 6.94772 11 7.5V8.64494C9.87111 8.98091 8.98091 9.87111 8.64494 11H7.5C6.94772 11 6.5 11.4477 6.5 12C6.5 12.5523 6.94772 13 7.5 13H8.64494C8.98091 14.1289 9.87111 15.0191 11 15.3551V16.5C11 17.0523 11.4477 17.5 12 17.5C12.5523 17.5 13 17.0523 13 16.5V15.3551Z" fill="currentColor"/>
</svg>
