<svg width="24" height="24" viewBox="0 0 24 24" fill="none" xmlns="http://www.w3.org/2000/svg">
  <path d="M21.3067 3.56429C22.352 4.5882 22.9623 5.99399 23 7.47821V7.60052C23 9.40904 22.2823 11.1917 20.4305 13.4662C18.1407 16.0388 15.6839 18.4518 13.0768 20.6889L13.0682 20.6963L13.0598 20.7039L12.0055 21.6509L10.9343 20.6727L10.9224 20.6618L10.9101 20.6513C8.30169 18.4195 5.84838 16.0059 3.5679 13.4278C1.71852 11.1921 1 9.40985 1 7.60052C1 6.10952 1.58172 4.68319 2.6115 3.63438C3.64067 2.58619 5.03258 2.00075 6.48 2.00075H6.59854C7.47638 2.00338 8.34418 2.19642 9.14433 2.56767C9.94494 2.93914 10.6601 3.4808 11.2413 4.1577L11.9966 5.03721L12.7558 4.16108C13.3405 3.48629 14.0572 2.9459 14.8585 2.5741C15.6598 2.20233 16.5283 2.00717 17.4073 2.00072V2.00076L17.4153 2.00063C18.8606 1.97849 20.2594 2.53837 21.3067 3.56429Z" stroke="currentColor" stroke-width="2"/>
</svg>