<svg width="24" height="24" viewBox="0 0 24 24" fill="none" xmlns="http://www.w3.org/2000/svg">
<path fill-rule="evenodd" clip-rule="evenodd" d="M13.44 20.7306C15.6456 18.8724 17.7236 16.8679 19.66 14.7306C21.28 12.7806 22 11.1406 22 9.40061V9.29062C21.9659 7.86184 21.3688 6.50436 20.3388 5.51363C19.3087 4.5229 17.929 3.97911 16.5 4.00061C15.648 4.00675 14.8068 4.1925 14.0314 4.54574C13.7326 4.68183 13.4462 4.84162 13.1748 5.02317C12.7417 5.31283 12.3466 5.6579 12 6.05061C11.6586 5.66023 11.2689 5.31683 10.8414 5.02815C10.5661 4.8422 10.275 4.67896 9.97101 4.54047C9.19506 4.18698 8.35267 4.00294 7.5 4.00061H7.4C5.96783 4.00061 4.59432 4.56954 3.58162 5.58224C2.56893 6.59493 2 7.96844 2 9.40061C2 11.1406 2.72 12.7806 4.34 14.7006C6.26846 16.8421 8.34346 18.8469 10.55 20.7006L12 22.0006L13.44 20.7306ZM12.0109 19.3243L11.8611 19.19L11.8365 19.1693C9.70929 17.3823 7.70843 15.4501 5.84823 13.3867C4.41984 11.6873 4 10.4957 4 9.40061C4 8.49888 4.35821 7.63407 4.99584 6.99645C5.63346 6.35883 6.49826 6.00061 7.4 6.00061H7.49698C8.06459 6.00251 8.62532 6.12519 9.14188 6.36051C9.65918 6.59617 10.1203 6.93938 10.4945 7.36727L11.9932 9.08086L13.4996 7.37399C13.8773 6.94598 14.341 6.60243 14.8605 6.36578C15.38 6.12912 15.9436 6.00467 16.5144 6.00056L16.5222 6.00051L16.5301 6.00039C17.4318 5.98682 18.3024 6.32995 18.9523 6.9551C19.5972 7.57535 19.9731 8.42342 20 9.31721V9.40061C20 10.4946 19.5812 11.6871 18.1485 13.4202C16.2807 15.4788 14.2772 17.4101 12.1514 19.2011L12.1341 19.2157L12.0109 19.3243Z" fill="#313438"/>
</svg>
