<svg width="20" height="18" viewBox="0 0 20 18" fill="none" xmlns="http://www.w3.org/2000/svg">
<path d="M10.7957 15.9659L10.787 15.9731L10.7786 15.9806L10.0055 16.6624L9.21754 15.956L9.20556 15.9453L9.19323 15.9349C7.02633 14.1146 4.98836 12.146 3.094 10.0435C1.56935 8.23323 1 6.81756 1 5.40061C1 4.23366 1.46357 3.1145 2.28873 2.28934C3.11389 1.46418 4.23305 1.00061 5.4 1.00061H5.4986C6.20871 1.00274 6.91022 1.1561 7.55644 1.45049C8.20307 1.74507 8.77949 2.17408 9.24727 2.70894L9.99661 3.56573L10.7498 2.7123C11.2205 2.17887 11.7985 1.7507 12.446 1.45576C13.0934 1.16081 13.7958 1.00571 14.5072 1.00059V1.00062L14.515 1.0005C15.6804 0.982966 16.8055 1.42643 17.6455 2.23436C18.4828 3.03969 18.9693 4.14217 19 5.30319V5.40061C19 6.81682 18.4314 8.23288 16.9044 10.0752C15.0023 12.1732 12.9614 14.1412 10.7957 15.9659Z" stroke="currentColor" stroke-width="2"/>
</svg>
