<svg width="24" height="24" viewBox="0 0 24 24" fill="currentColor" xmlns="http://www.w3.org/2000/svg">
  <g filter="url(#filter0_d_2438_3608)">
    <path fill-rule="evenodd" clip-rule="evenodd" d="M13.44 19.7306C15.6456 17.8724 17.7236 15.8679 19.66 13.7306C21.28 11.7806 22 10.1406 22 8.40061V8.29062C21.9659 6.86184 21.3688 5.50436 20.3388 4.51363C19.3087 3.5229 17.929 2.97911 16.5 3.00061C15.648 3.00675 14.8068 3.1925 14.0314 3.54574C13.7326 3.68183 13.4462 3.84162 13.1748 4.02317C12.7417 4.31283 12.3466 4.6579 12 5.05061C11.6586 4.66023 11.2689 4.31683 10.8414 4.02815C10.5661 3.8422 10.275 3.67896 9.97101 3.54047C9.19506 3.18698 8.35267 3.00294 7.5 3.00061H7.4C5.96783 3.00061 4.59432 3.56954 3.58162 4.58224C2.56893 5.59493 2 6.96844 2 8.40061C2 10.1406 2.72 11.7806 4.34 13.7006C6.26846 15.8421 8.34346 17.8469 10.55 19.7006L12 21.0006L13.44 19.7306ZM12.0109 18.3243L11.8611 18.19L11.8365 18.1693C9.70929 16.3823 7.70843 14.4501 5.84823 12.3867C4.41984 10.6873 4 9.49568 4 8.40061C4 7.49888 4.35821 6.63407 4.99584 5.99645C5.63346 5.35883 6.49826 5.00061 7.4 5.00061H7.49698C8.06459 5.00251 8.62532 5.12519 9.14188 5.36051C9.65918 5.59617 10.1203 5.93938 10.4945 6.36727L11.9932 8.08086L13.4996 6.37399C13.8773 5.94598 14.341 5.60243 14.8605 5.36578C15.38 5.12912 15.9436 5.00467 16.5144 5.00056L16.5222 5.00051L16.5301 5.00039C17.4318 4.98682 18.3024 5.32995 18.9523 5.9551C19.5972 6.57535 19.9731 7.42342 20 8.31721V8.40061C20 9.49459 19.5812 10.6871 18.1485 12.4202C16.2807 14.4788 14.2772 16.4101 12.1514 18.2011L12.1341 18.2157L12.0109 18.3243Z" fill="currentColor"/>
  </g>
  <defs>
    <filter id="filter0_d_2438_3608" x="0" y="1" width="24" height="22.0006" filterUnits="userSpaceOnUse" color-interpolation-filters="sRGB">
      <feFlood flood-opacity="0" result="BackgroundImageFix"/>
      <feColorMatrix in="SourceAlpha" type="matrix" values="0 0 0 0 0 0 0 0 0 0 0 0 0 0 0 0 0 0 127 0" result="hardAlpha"/>
      <feOffset/>
      <feGaussianBlur stdDeviation="1"/>
      <feColorMatrix type="matrix" values="0 0 0 0 0 0 0 0 0 0 0 0 0 0 0 0 0 0 0.4 0"/>
      <feBlend mode="normal" in2="BackgroundImageFix" result="effect1_dropShadow_2438_3608"/>
      <feBlend mode="normal" in="SourceGraphic" in2="effect1_dropShadow_2438_3608" result="shape"/>
    </filter>
  </defs>
</svg>
