<svg width="24" height="22" viewBox="0 0 24 22" fill="none" xmlns="http://www.w3.org/2000/svg">
<path d="M13.0768 19.6889L13.0682 19.6963L13.0598 19.7039L12.0055 20.6509L10.9343 19.6727L10.9224 19.6618L10.9101 19.6513C8.30169 17.4195 5.84838 15.0059 3.5679 12.4278C1.71852 10.1921 1 8.40985 1 6.60052C1 5.10952 1.58172 3.68319 2.6115 2.63438C3.64067 1.58619 5.03258 1.00075 6.48 1.00075H6.59854C7.47638 1.00338 8.34418 1.19642 9.14433 1.56767C9.94494 1.93914 10.6601 2.4808 11.2413 3.1577L11.9966 4.03721L12.7558 3.16108C13.3405 2.48629 14.0572 1.9459 14.8585 1.5741C15.6598 1.20233 16.5283 1.00717 17.4073 1.00072V1.00076L17.4153 1.00063C18.8606 0.978485 20.2594 1.53837 21.3067 2.56429C22.352 3.58822 22.9623 4.99403 23 6.47828V6.60052C23 8.40903 22.2823 10.1917 20.4305 12.4662C18.1407 15.0388 15.6839 17.4518 13.0768 19.6889Z" stroke="currentColor" stroke-width="2"/>
</svg>
