<svg width="24" height="24" viewBox="0 0 24 24" fill="none" xmlns="http://www.w3.org/2000/svg">
  <path d="M10.2708 17.9452L8.50083 19.6652C8.0367 20.1294 7.40721 20.3901 6.75083 20.3901C6.09446 20.3901 5.46496 20.1294 5.00083 19.6652C4.5367 19.2011 4.27596 18.5716 4.27596 17.9152C4.27596 17.2589 4.5367 16.6294 5.00083 16.1652L9.54083 11.6152C9.98644 11.1682 10.5869 10.9095 11.2178 10.8928C11.8488 10.876 12.4621 11.1025 12.9308 11.5252L13.0508 11.6252C13.2405 11.8109 13.4961 11.9136 13.7614 11.9108C14.0268 11.908 14.2802 11.7999 14.4658 11.6102C14.6515 11.4206 14.7542 11.165 14.7514 10.8996C14.7486 10.6343 14.6405 10.3809 14.4508 10.1952C14.3944 10.1223 14.3343 10.0522 14.2708 9.98524C13.4172 9.24255 12.3132 8.85208 11.1824 8.89293C10.0516 8.93378 8.97867 9.40289 8.18083 10.2052L3.58083 14.7552C2.79919 15.606 2.37645 16.7259 2.40091 17.881C2.42536 19.0361 2.89511 20.1371 3.71206 20.954C4.52902 21.771 5.63 22.2407 6.78508 22.2652C7.94016 22.2896 9.06004 21.8669 9.91083 21.0852L11.6408 19.3952C11.8116 19.2089 11.9056 18.9648 11.9036 18.712C11.9017 18.4592 11.8042 18.2165 11.6305 18.0328C11.4569 17.849 11.2202 17.7378 10.9679 17.7216C10.7156 17.7053 10.4666 17.7853 10.2708 17.9452ZM20.9608 3.70524C20.1196 2.86924 18.9818 2.40002 17.7958 2.40002C16.6099 2.40002 15.4721 2.86924 14.6308 3.70524L12.9008 5.39524C12.73 5.58159 12.6361 5.82572 12.638 6.0785C12.6399 6.33129 12.7375 6.57397 12.9111 6.75772C13.0847 6.94147 13.3215 7.05265 13.5738 7.06889C13.826 7.08512 14.0751 7.00521 14.2708 6.84524L16.0008 5.12524C16.465 4.66111 17.0945 4.40036 17.7508 4.40036C18.4072 4.40036 19.0367 4.66111 19.5008 5.12524C19.965 5.58937 20.2257 6.21886 20.2257 6.87524C20.2257 7.53161 19.965 8.16111 19.5008 8.62524L14.9608 13.1752C14.5152 13.6223 13.9148 13.881 13.2838 13.8977C12.6528 13.9145 12.0395 13.688 11.5708 13.2652L11.4508 13.1652C11.2612 12.9796 11.0056 12.8769 10.7402 12.8797C10.4749 12.8825 10.2215 12.9906 10.0358 13.1802C9.85018 13.3699 9.74746 13.6255 9.75028 13.8908C9.75309 14.1562 9.8612 14.4096 10.0508 14.5952C10.1235 14.6695 10.2003 14.7396 10.2808 14.8052C11.1355 15.5457 12.2391 15.9347 13.3691 15.8939C14.4992 15.853 15.5718 15.3854 16.3708 14.5852L20.9208 10.0352C21.7622 9.19931 22.2386 8.06447 22.2461 6.87848C22.2536 5.6925 21.7915 4.55173 20.9608 3.70524Z" fill="currentColor"/>
</svg>
