<svg width="24" height="24" viewBox="0 0 24 24" fill="none" xmlns="http://www.w3.org/2000/svg">
<path d="M10.5 9C10.5 9.82843 9.82843 10.5 9 10.5C8.17157 10.5 7.5 9.82843 7.5 9C7.5 8.17157 8.17157 7.5 9 7.5C9.82843 7.5 10.5 8.17157 10.5 9Z" fill="currentColor"/>
<path fill-rule="evenodd" clip-rule="evenodd" d="M4 6C4 4.89543 4.89543 4 6 4H18C19.1046 4 20 4.89543 20 6V18C20 19.1046 19.1046 20 18 20H6C4.89543 20 4 19.1046 4 18V6ZM18 6L6 6V13.5859L8.00008 11.5858L10.0001 13.5858L14.0001 9.58582L18 13.5857V6ZM18 16.4142L14.0001 12.4142L10.0001 16.4142L8.00008 14.4142L6 16.4143V18H18V16.4142Z" fill="currentColor"/>
</svg>
