<svg width="24" height="24" viewBox="0 0 24 24" fill="none" xmlns="http://www.w3.org/2000/svg">
<path fill-rule="evenodd" clip-rule="evenodd" d="M6.5 7C3.73858 7 1.5 9.23858 1.5 12C1.5 14.7614 3.73858 17 6.5 17C9.26142 17 11.5 14.7614 11.5 12C11.5 9.23858 9.26142 7 6.5 7ZM3.5 12C3.5 10.3431 4.84315 9 6.5 9C8.15685 9 9.5 10.3431 9.5 12C9.5 13.6569 8.15685 15 6.5 15C4.84315 15 3.5 13.6569 3.5 12Z" fill="currentColor"/>
<path d="M17.5002 10.5857L14.0002 7.08569L12.5859 8.49991L16.0859 11.9999L12.5859 15.4999L14.0002 16.9141L17.5002 13.4141L21.0002 16.9141L22.4144 15.4999L18.9144 11.9999L22.4144 8.49991L21.0002 7.08569L17.5002 10.5857Z" fill="currentColor"/>
</svg>
