<svg width="24" height="24" viewBox="0 0 24 24" fill="none" xmlns="http://www.w3.org/2000/svg">
<path fill-rule="evenodd" clip-rule="evenodd" d="M16.1717 19L20.5859 23.4142L22.0002 22L2.00015 2L0.585938 3.41421L5.26331 8.09158C5.09178 8.69826 5 9.33841 5 10V17H3V19H16.1717ZM14.1717 17L7.0028 9.83108C7.00094 9.88716 7 9.94347 7 10V17H14.1717Z" fill="currentColor"/>
<path d="M17 10V14.1716L19 16.1716V10C19 6.13401 15.866 3 12 3C10.2779 3 8.70101 3.62187 7.48171 4.65331L8.90287 6.07447C9.75452 5.40162 10.8304 5 12 5C14.7614 5 17 7.23858 17 10Z" fill="currentColor"/>
<path d="M21 18.1716L19.8284 17H21V18.1716Z" fill="currentColor"/>
<path d="M12 22C13.1046 22 14 21.1046 14 20H10C10 21.1046 10.8954 22 12 22Z" fill="currentColor"/>
</svg>
