<svg width="24" height="24" viewBox="0 0 24 24" fill="none" xmlns="http://www.w3.org/2000/svg">
<path d="M10.91 22L11.91 12.5855C11.91 12.481 12.11 12.481 12.12 12.5855L13.12 22H20V3H4V22H10.91ZM18 20.1H14.91L14.1 12.405C14.0386 11.9182 13.7914 11.4696 13.4054 11.1442C13.0193 10.8188 12.5211 10.6391 12.005 10.6391C11.4889 10.6391 10.9907 10.8188 10.6046 11.1442C10.2186 11.4696 9.97143 11.9182 9.91 12.405L9.09 20.1H6V7.75H18V20.1ZM10 5.85V4.9H13V5.85H10ZM18 5.85H15V4.9H18V5.85ZM8 4.9V5.85H6V4.9H8Z" fill="currentColor"/>
</svg>
