<svg width="24" height="24" viewBox="0 0 24 24" fill="none" xmlns="http://www.w3.org/2000/svg">
<path fill-rule="evenodd" clip-rule="evenodd" d="M12 21.8137L6.34315 16.1569C3.21895 13.0327 3.21895 7.96734 6.34315 4.84315C9.46734 1.71895 14.5327 1.71895 17.6569 4.84315C20.781 7.96734 20.781 13.0327 17.6569 16.1569L12 21.8137ZM12 18.9853L16.2426 14.7426C18.5858 12.3995 18.5858 8.6005 16.2426 6.25736C13.8995 3.91421 10.1005 3.91421 7.75736 6.25736C5.41421 8.6005 5.41421 12.3995 7.75736 14.7426L12 18.9853Z" fill="currentColor"/>
<path d="M14 10.5C14 11.6046 13.1046 12.5 12 12.5C10.8954 12.5 10 11.6046 10 10.5C10 9.39543 10.8954 8.5 12 8.5C13.1046 8.5 14 9.39543 14 10.5Z" fill="currentColor"/>
</svg>
