<svg width="24" height="24" viewBox="0 0 24 24" fill="none" xmlns="http://www.w3.org/2000/svg">
<path d="M12 13C13.6569 13 15 11.6569 15 10C15 8.34315 13.6569 7 12 7C10.3431 7 9 8.34315 9 10C9 11.6569 10.3431 13 12 13Z" fill="currentColor"/>
<path fill-rule="evenodd" clip-rule="evenodd" d="M19 10.2381C19 14.2356 15.866 18.381 12 22C8.13401 18.381 5 14.2356 5 10.2381C5 6.24061 8.13401 3 12 3C15.866 3 19 6.24061 19 10.2381ZM17 10.2381C17 11.7189 16.4141 13.3794 15.263 15.1864C14.4085 16.5277 13.2882 17.8776 12 19.2014C10.7118 17.8776 9.59153 16.5277 8.73704 15.1864C7.5859 13.3794 7 11.7189 7 10.2381C7 7.28159 9.3011 5 12 5C14.6989 5 17 7.28159 17 10.2381Z" fill="currentColor"/>
</svg>
