<svg width="24" height="24" viewBox="0 0 24 24" fill="none" xmlns="http://www.w3.org/2000/svg">
<path d="M13.25 15.75C13.25 16.4404 12.6904 17 12 17C11.3096 17 10.75 16.4404 10.75 15.75C10.75 15.0596 11.3096 14.5 12 14.5C12.6904 14.5 13.25 15.0596 13.25 15.75Z" fill="#313438"/>
<path fill-rule="evenodd" clip-rule="evenodd" d="M3 12C3 7.02944 7.02944 3 12 3C16.9706 3 21 7.02944 21 12C21 16.9706 16.9706 21 12 21C7.02944 21 3 16.9706 3 12ZM12 5C8.13401 5 5 8.13401 5 12C5 15.866 8.13401 19 12 19C15.866 19 19 15.866 19 12C19 8.13401 15.866 5 12 5Z" fill="#313438"/>
<path fill-rule="evenodd" clip-rule="evenodd" d="M12 9C11.4094 9 11 9.40943 11 10H9C9 8.30486 10.3049 7 12 7C12.7239 7 13.4682 7.17969 14.0533 7.6477C14.6683 8.13975 15 8.86661 15 9.71429C15 10.3713 14.7969 10.8815 14.4684 11.2921C14.2402 11.5773 13.9348 11.8196 13.7378 11.9758C13.6987 12.0069 13.6638 12.0345 13.6347 12.0584C13.4173 12.2371 13.2845 12.3723 13.1891 12.546C13.0972 12.7134 13 12.9921 13 13.5H11C11 12.7222 11.1528 12.0991 11.4359 11.5835C11.7155 11.0742 12.0827 10.7451 12.3653 10.513C12.4498 10.4436 12.5201 10.387 12.5797 10.3391C12.7489 10.2031 12.8315 10.1366 12.9066 10.0427C12.9531 9.98457 13 9.9144 13 9.71429C13 9.41911 12.9031 9.28882 12.8039 9.20944C12.6746 9.10603 12.4189 9 12 9Z" fill="#313438"/>
</svg>
