<svg width="24" height="24" viewBox="0 0 24 24" fill="none" xmlns="http://www.w3.org/2000/svg">
<path d="M13.75 18.25C13.75 19.2165 12.9665 20 12 20C11.0335 20 10.25 19.2165 10.25 18.25C10.25 17.2835 11.0335 16.5 12 16.5C12.9665 16.5 13.75 17.2835 13.75 18.25Z" fill="currentColor"/>
<path fill-rule="evenodd" clip-rule="evenodd" d="M12 6.5C10.8284 6.5 10 7.32843 10 8.5H7C7 5.67157 9.17157 3.5 12 3.5C13.2288 3.5 14.4702 3.80524 15.437 4.5787C16.4489 5.38819 17 6.58562 17 8C17 10.049 15.7889 11.1273 15.0114 11.8195C14.9251 11.8964 14.8441 11.9685 14.7707 12.0367C14.374 12.405 14.0871 12.7179 13.8785 13.1202C13.6762 13.5103 13.5 14.08 13.5 15H10.5C10.5 13.67 10.7613 12.6147 11.2152 11.7392C11.6629 10.8759 12.251 10.2825 12.7293 9.83831C12.8114 9.76207 12.8886 9.69087 12.961 9.62402C13.7846 8.86381 14 8.66494 14 8C14 7.41438 13.8011 7.11181 13.563 6.9213C13.2798 6.69476 12.7712 6.5 12 6.5Z" fill="currentColor"/>
</svg>
