<svg width="24" height="24" viewBox="0 0 24 24" fill="none" xmlns="http://www.w3.org/2000/svg">
  <g clip-path="url(#clip0_2438_3732)">
    <path fill-rule="evenodd" clip-rule="evenodd" d="M3.99951 3.00081H2.09559C2.16283 3.65113 2.29955 4.32899 2.60938 4.91986C2.8307 5.34194 3.12999 5.69688 3.53796 5.96329C3.67308 6.05153 3.82582 6.1338 3.99951 6.2068V3.24976V3.00081ZM3.99951 1.24976H-0.000488281L0.0364913 2.15653C0.0718233 3.02289 0.146027 4.41902 0.791733 5.65044C1.12272 6.28165 1.61355 6.89112 2.34218 7.36692C2.81444 7.67531 3.36517 7.91349 3.99951 8.06938V8.2499C3.99951 12.3453 7.07687 15.722 11.0454 16.1937V20.2501H6.04527V22.2502H18.0455V20.2501H13.0454V16.1823C16.9697 15.67 19.9998 12.3138 19.9998 8.2499V8.06939C20.6342 7.91349 21.1849 7.67531 21.6572 7.36692C22.3858 6.89112 22.8767 6.28165 23.2077 5.65044C23.8534 4.41902 23.9276 3.02289 23.9629 2.15653L23.9999 1.24976H19.9998H19.5136H17.9998H5.99951H4.48583H3.99951ZM17.9998 3.24976H5.99951V8.2499C5.99951 11.5637 8.68588 14.2501 11.9997 14.2501C15.3135 14.2501 17.9998 11.5637 17.9998 8.2499V3.24976ZM20.4614 5.96329C20.3263 6.05153 20.1735 6.1338 19.9998 6.20681V3.24976V3.00081H21.9038C21.8366 3.65113 21.6998 4.32899 21.39 4.91986C21.1687 5.34194 20.8694 5.69688 20.4614 5.96329Z" fill="currentColor"/>
  </g>
  <defs>
    <clipPath id="clip0_2438_3732">
      <rect width="24" height="24" fill="white"/>
    </clipPath>
  </defs>
</svg>