<svg width="24" height="24" viewBox="0 0 24 24" fill="none" xmlns="http://www.w3.org/2000/svg">
  <path fill-rule="evenodd" clip-rule="evenodd" d="M8.93853 4.60897C10.4003 4.00347 12.0089 3.84504 13.5607 4.15372C15.0775 4.45543 16.565 5.15079 17.7071 6.29289L19 7.58579V5H21V11H15V9H17.5858L16.2929 7.70711C15.4771 6.89128 14.3695 6.35377 13.1705 6.11529C12.0067 5.88378 10.8003 6.0026 9.7039 6.45673C8.60754 6.91085 7.67047 7.67989 7.01118 8.66658C6.35189 9.65328 6 10.8133 6 12C6 13.1867 6.35189 14.3467 7.01118 15.3334C7.67047 16.3201 8.60754 17.0892 9.7039 17.5433C10.8003 17.9974 12.0067 18.1162 13.1705 17.8847C14.3344 17.6532 15.4035 17.0818 16.2426 16.2426L16.9497 15.5355L18.364 16.9497L17.6569 17.6569C16.538 18.7757 15.1126 19.5376 13.5607 19.8463C12.0089 20.155 10.4003 19.9965 8.93853 19.391C7.47673 18.7855 6.2273 17.7602 5.34824 16.4446C4.46919 15.129 4 13.5823 4 12C4 10.4178 4.46919 8.87104 5.34824 7.55544C6.22729 6.23985 7.47672 5.21447 8.93853 4.60897Z" fill="currentColor"/>
</svg>