<svg width="24" height="24" viewBox="0 0 24 24" fill="none" xmlns="http://www.w3.org/2000/svg">
<path d="M20.0005 10V4H18.0005V6.58579L17.7076 6.29289C16.6887 5.27401 15.388 4.62553 14.0708 4.27259C12.7144 3.90914 11.2862 3.90914 9.92971 4.27259C8.57327 4.63605 7.3364 5.35016 6.34341 6.34315C5.35043 7.33613 4.63632 8.57301 4.27286 9.92945L6.20471 10.4471C6.4773 9.42975 7.01289 8.5021 7.75762 7.75736C8.50236 7.01262 9.43002 6.47704 10.4473 6.20445C11.4647 5.93185 12.5358 5.93185 13.5532 6.20444C14.6098 6.48756 15.5746 6.98827 16.2934 7.70711L16.5863 8H14.0005V10H20.0005Z" fill="currentColor"/>
<path d="M9.929 19.7274C11.2854 20.0909 12.7137 20.0909 14.0701 19.7274C15.4265 19.3639 16.6634 18.6498 17.6564 17.6569C18.6494 16.6639 19.3635 15.427 19.727 14.0706L17.7951 13.5529C17.5225 14.5702 16.9869 15.4979 16.2422 16.2426C15.4975 16.9874 14.5698 17.523 13.5525 17.7956C12.5351 18.0681 11.464 18.0681 10.4466 17.7956C9.39024 17.5125 8.42607 17.0118 7.70711 16.2929L6.41421 15L9 15V13L3 13V19H5L5 16.4142L6.29289 17.7071C7.31165 18.7258 8.61162 19.3744 9.929 19.7274Z" fill="currentColor"/>
</svg>
