<svg width="24" height="24" viewBox="0 0 24 24" fill="none" xmlns="http://www.w3.org/2000/svg">
<g clip-path="url(#clip0_5772_7279)">
<path d="M2.00014 7.96498C2.00847 7.87488 2.02305 7.7853 2.02461 7.69519C2.03712 6.72696 2.04337 5.75926 2.05899 4.79103C2.06732 4.28061 2.33138 3.9353 2.77461 3.8254C3.31837 3.69051 3.86993 4.06134 3.91368 4.61915C3.94128 4.97384 3.9168 5.33321 3.91628 5.68999C3.91628 6.05874 3.91628 6.42748 3.91628 6.82436C3.97566 6.77592 4.01993 6.74415 4.05951 6.70717C5.7767 5.11759 7.79441 4.17905 10.1199 3.90301C15.3413 3.28374 20.2798 6.64728 21.6027 11.7509C22.3251 14.5369 21.9642 17.1962 20.5678 19.7134C20.2913 20.2119 19.7434 20.3837 19.2746 20.1259C18.8069 19.8686 18.6517 19.3103 18.9319 18.8119C19.6715 17.4952 20.0788 16.0863 20.0856 14.5754C20.1022 10.6921 17.7481 7.39728 14.0767 6.13946C10.8522 5.03478 7.16993 5.99259 4.88555 8.53009C4.86003 8.55821 4.83659 8.58842 4.78034 8.65613C4.89649 8.65613 4.97514 8.65717 5.0543 8.65613C5.98347 8.64571 6.91211 8.6254 7.84128 8.62696C8.49441 8.62801 8.93503 9.28582 8.69597 9.88894C8.54493 10.2702 8.24753 10.4837 7.84076 10.49C6.19753 10.5155 4.55378 10.5306 2.91003 10.5426C2.51993 10.5452 2.20118 10.3046 2.06003 9.93842C2.0418 9.89103 2.02045 9.84467 2.00118 9.7978C2.00118 9.18686 2.00118 8.57644 2.00118 7.96551L2.00014 7.96498Z" fill="currentColor"/>
</g>
<defs>
<clipPath id="clip0_5772_7279">
<rect width="20" height="20" fill="currentColor" transform="matrix(-1 0 0 1 22 2)"/>
</clipPath>
</defs>
</svg>
