<svg width="24" height="24" viewBox="0 0 24 24" fill="none" xmlns="http://www.w3.org/2000/svg">
<path fill-rule="evenodd" clip-rule="evenodd" d="M16.8976 12.8375L16.7329 13.9867L18.5183 15.3759L17.9987 16.2699L15.9198 15.4464L15.0334 16.0796C14.4912 16.467 14.1198 16.6685 13.8971 16.7574L12.8222 17.1864L12.5022 19.4264H11.4978L11.1813 17.2109L10.1374 16.7715C9.75141 16.6091 9.37887 16.3933 9.01831 16.1178L8.1193 15.4309L6.00128 16.2699L5.48171 15.3759L7.26707 13.9867L7.1024 12.8375C7.09437 12.7815 7.07925 12.5948 7.07925 12.2132C7.07925 11.8317 7.09437 11.6449 7.1024 11.589L7.26707 10.4397L5.48171 9.05056L6.00128 8.15651L8.08023 8.98005L8.96663 8.34678C9.5088 7.95944 9.88024 7.75787 10.1029 7.66898L11.1778 7.23997L11.4978 5H12.5022L12.8187 7.21552L13.8626 7.65487C14.2486 7.81731 14.6211 8.03308 14.9817 8.30859L15.8807 8.99553L17.9987 8.15651L18.5183 9.05056L16.7329 10.4397L16.8976 11.589C16.9056 11.6449 16.9207 11.8317 16.9207 12.2132C16.9207 12.5947 16.9056 12.7815 16.8976 12.8375ZM19.0499 18.4415L20.9101 15.2406C21.054 14.981 21.0251 14.7793 20.8234 14.6353L18.8774 13.1212C18.9063 12.9194 18.9207 12.6167 18.9207 12.2132C18.9207 11.8097 18.9063 11.507 18.8774 11.3053L20.8234 9.79111C21.0251 9.64717 21.054 9.4454 20.9101 9.18581L19.0499 5.98495C18.9349 5.78257 18.7476 5.72475 18.488 5.81148L16.196 6.71942C15.7057 6.34481 15.1866 6.04216 14.6385 5.81148L14.2925 3.38938C14.2346 3.12979 14.0904 3 13.8597 3H10.1403C9.90961 3 9.76536 3.12979 9.70754 3.38938L9.36153 5.81148C8.92847 5.98434 8.40929 6.28698 7.804 6.71942L5.512 5.81148C5.25303 5.72536 5.06572 5.78319 4.95007 5.98495L3.0899 9.18581C2.94596 9.4454 2.97487 9.64717 3.17663 9.79111L5.12262 11.3053C5.09371 11.507 5.07925 11.8097 5.07925 12.2132C5.07925 12.6167 5.09371 12.9194 5.12262 13.1212L3.17663 14.6353C2.97487 14.7793 2.94596 14.981 3.0899 15.2406L4.95007 18.4415C5.0651 18.6438 5.25241 18.7017 5.512 18.6149L7.804 17.707C8.29426 18.0816 8.81344 18.3843 9.36153 18.6149L9.70754 21.037C9.76536 21.2966 9.90961 21.4264 10.1403 21.4264H13.8597C14.0904 21.4264 14.2346 21.2966 14.2925 21.037L14.6385 18.6149C15.0715 18.4421 15.5907 18.1394 16.196 17.707L18.488 18.6149C18.747 18.7011 18.9343 18.6432 19.0499 18.4415ZM10.5 12C10.5 11.1716 11.1716 10.5 12 10.5C12.8284 10.5 13.5 11.1716 13.5 12C13.5 12.8284 12.8284 13.5 12 13.5C11.1716 13.5 10.5 12.8284 10.5 12ZM12 8.5C10.067 8.5 8.5 10.067 8.5 12C8.5 13.933 10.067 15.5 12 15.5C13.933 15.5 15.5 13.933 15.5 12C15.5 10.067 13.933 8.5 12 8.5Z" fill="currentColor"/>
</svg>
