<svg width="24" height="24" viewBox="0 0 24 24" fill="none" xmlns="http://www.w3.org/2000/svg">
  <path fill-rule="evenodd" clip-rule="evenodd" d="M19 5.5C19 6.32843 18.3284 7 17.5 7C16.6716 7 16 6.32843 16 5.5C16 4.67157 16.6716 4 17.5 4C18.3284 4 19 4.67157 19 5.5ZM21 5.5C21 7.433 19.433 9 17.5 9C16.5781 9 15.7394 8.64353 15.1142 8.06091L8.90046 11.1678C8.96551 11.4345 9 11.7132 9 12C9 12.2868 8.96551 12.5655 8.90046 12.8322L15.1142 15.9391C15.7394 15.3565 16.5781 15 17.5 15C19.433 15 21 16.567 21 18.5C21 20.433 19.433 22 17.5 22C15.567 22 14 20.433 14 18.5C14 18.2132 14.0345 17.9345 14.0995 17.6678L7.88576 14.5609C7.26063 15.1435 6.42194 15.5 5.5 15.5C3.567 15.5 2 13.933 2 12C2 10.067 3.567 8.5 5.5 8.5C6.42194 8.5 7.26063 8.85646 7.88576 9.43909L14.0995 6.3322C14.0345 6.06547 14 5.78676 14 5.5C14 3.567 15.567 2 17.5 2C19.433 2 21 3.567 21 5.5ZM19 18.5C19 19.3284 18.3284 20 17.5 20C16.6716 20 16 19.3284 16 18.5C16 17.6716 16.6716 17 17.5 17C18.3284 17 19 17.6716 19 18.5ZM5.5 13.5C6.32843 13.5 7 12.8284 7 12C7 11.1716 6.32843 10.5 5.5 10.5C4.67157 10.5 4 11.1716 4 12C4 12.8284 4.67157 13.5 5.5 13.5Z" fill="currentColor"/>
</svg>
