<svg width="24" height="24" viewBox="0 0 24 24" fill="none" xmlns="http://www.w3.org/2000/svg">
  <path fill-rule="evenodd" clip-rule="evenodd" d="M22.8275 8.14634C23.7878 8.63418 23.9014 10.0118 23.9014 11.009C23.9044 14.1477 23.9198 15.691 23.9198 15.691V15.8843L22.8367 18.1118H22.3182C22.2967 18.112 22.2589 18.1124 22.2056 18.113C21.4957 18.1207 18.0511 18.1578 14.3409 18.1578C10.2173 18.1578 5.76226 18.1118 4.38771 17.9308C2.31148 17.66 0.545099 16.0199 0.40542 15.8902C0.402674 15.8876 0.400557 15.8857 0.399079 15.8843L0.187374 15.6818L0.147488 15.4057C0.11067 15.1387 -0.174671 12.7486 1.1109 11.2667C1.43407 10.9079 1.8322 10.6247 2.27706 10.437C2.72193 10.2493 3.20263 10.1617 3.6851 10.1805C5.65794 10.1805 11.7636 7.13998 13.942 5.971L14.0126 5.93418L14.0862 5.90963C14.5999 5.76185 15.1511 5.82248 15.6203 6.07839C15.8797 6.23798 16.1017 6.45158 16.2711 6.70466C16.4405 6.95774 16.5534 7.24434 16.6021 7.54498C16.707 7.88553 16.8872 8.19809 17.1294 8.45942C17.3716 8.72076 17.6696 8.92417 18.0012 9.05452C18.9278 9.4135 20.0385 9.14964 21.2658 8.29361C21.4888 8.13081 21.7515 8.0312 22.0264 8.00528C22.3012 7.97936 22.578 8.02809 22.8275 8.14634ZM14.7827 7.52964C14.736 7.50719 14.6838 7.49867 14.6324 7.50509L14.6416 7.51123C14.4416 7.61913 14.0908 7.80546 13.6318 8.04209L14.3654 9.54541L13.0737 10.159L12.3553 8.68683C12.0205 8.8525 11.6628 9.02679 11.2896 9.20488L11.9538 10.6714L10.6468 11.2667L9.98502 9.8119C9.6395 9.96832 9.28843 10.1236 8.93654 10.2745L9.54531 11.6717L8.22599 12.2393L7.61236 10.831L7.98689 10.6698C6.30166 11.3483 4.6963 11.8619 3.70044 11.8619C3.3147 11.8436 2.93347 11.9513 2.61431 12.1687L2.71556 12.2638C3.02237 12.5737 3.78328 13.3009 5.78374 13.6445C7.83328 13.9912 17.1084 13.8071 22.2261 13.6445V11.009C22.2436 10.5901 22.197 10.1711 22.0881 9.76634C20.0201 11.1654 18.4001 11.0059 17.3968 10.6162C16.8044 10.3903 16.2744 10.0264 15.8507 9.55471C15.4271 9.08302 15.1219 8.51712 14.9607 7.90395C14.9466 7.76232 14.8836 7.62999 14.7827 7.52964ZM4.58408 16.2832C6.90362 16.5869 19.0935 16.4795 21.7659 16.4519H21.7567L22.2169 15.5038V15.3197C20.4619 15.375 15.5375 15.513 11.4016 15.513C8.77521 15.513 6.46794 15.4578 5.49226 15.2891C3.44578 14.9362 2.36885 14.1999 1.82885 13.7335C1.7706 14.113 1.75209 14.4976 1.77362 14.881C2.24306 15.2707 3.38749 16.1236 4.58408 16.2832Z" fill="currentColor"/>
</svg>