<svg width="24" height="24" viewBox="0 0 24 24" fill="none" xmlns="http://www.w3.org/2000/svg">
<path fill-rule="evenodd" clip-rule="evenodd" d="M22.8276 8.14646C23.788 8.6343 23.9015 10.0119 23.9015 11.0091C23.9046 14.1478 23.9199 15.6911 23.9199 15.6911V15.8844L22.8368 18.1119H22.3183C22.2969 18.1121 22.259 18.1125 22.2057 18.1131C21.4959 18.1208 18.0512 18.1579 14.341 18.1579C10.2174 18.1579 5.7624 18.1119 4.38785 17.9309C2.31161 17.6601 0.545237 16.02 0.405557 15.8903C0.402812 15.8877 0.400695 15.8858 0.399216 15.8844L0.187512 15.6819L0.147625 15.4058C0.110807 15.1388 -0.174534 12.7487 1.11103 11.2668C1.43421 10.9081 1.83234 10.6248 2.2772 10.4371C2.72206 10.2494 3.20277 10.1619 3.68524 10.1807C5.65808 10.1807 11.7638 7.1401 13.9422 5.97112L14.0127 5.9343L14.0864 5.90976C14.6 5.76197 15.1512 5.8226 15.6205 6.07851C15.8799 6.2381 16.1018 6.45171 16.2712 6.70478C16.4407 6.95786 16.5536 7.24447 16.6023 7.5451C16.7071 7.88565 16.8873 8.19821 17.1295 8.45955C17.3718 8.72089 17.6698 8.92429 18.0014 9.05464C18.928 9.41362 20.0386 9.14976 21.2659 8.29373C21.4889 8.13093 21.7517 8.03132 22.0265 8.0054C22.3014 7.97948 22.5781 8.02821 22.8276 8.14646ZM14.7829 7.52976C14.7361 7.50732 14.6839 7.49879 14.6325 7.50521L14.6417 7.51135C14.4417 7.61925 14.0909 7.80558 13.6319 8.04221L14.3656 9.54554L13.0739 10.1592L12.3554 8.68695C12.0206 8.85263 11.6629 9.02691 11.2897 9.20501L11.954 10.6716L10.6469 11.2668L9.98515 9.81202C9.63964 9.96844 9.28857 10.1237 8.93668 10.2747L9.54545 11.6718L8.22613 12.2394L7.6125 10.8311L7.98702 10.67C6.3018 11.3484 4.69643 11.862 3.70058 11.862C3.31483 11.8437 2.93361 11.9514 2.61444 12.1688L2.71569 12.264C3.02251 12.5738 3.78342 13.301 5.78387 13.6446C7.83342 13.9913 17.1085 13.8073 22.2263 13.6446V11.0091C22.2437 10.5903 22.1971 10.1712 22.0882 9.76646C20.0202 11.1656 18.4002 11.006 17.3969 10.6163C16.8045 10.3904 16.2745 10.0265 15.8509 9.55483C15.4272 9.08314 15.1221 8.51725 14.9608 7.90408C14.9467 7.76244 14.8838 7.63012 14.7829 7.52976ZM4.58422 16.2833C6.90376 16.587 19.0936 16.4796 21.766 16.452H21.7568L22.2171 15.504V15.3199C20.4621 15.3751 15.5376 15.5132 11.4017 15.5132C8.77535 15.5132 6.46808 15.4579 5.4924 15.2892C3.44592 14.9363 2.36899 14.2 1.82899 13.7336C1.77074 14.1132 1.75223 14.4977 1.77376 14.8811C2.24319 15.2708 3.38762 16.1237 4.58422 16.2833Z" fill="currentColor"/>
</svg>
