<svg width="24" height="24" viewBox="0 0 24 24" fill="none" xmlns="http://www.w3.org/2000/svg">
<g id="shop-outlined">
<path id="Union" fill-rule="evenodd" clip-rule="evenodd" d="M3 3V9.33333C3 10.0079 3.18217 10.64 3.5 11.1829V21H20.5V11.1835C20.818 10.6404 21.0003 10.0081 21.0003 9.33333V3H3ZM14.6667 11.8496C13.9981 12.5579 13.0505 13 11.9997 13C10.9491 13 10.0017 12.5581 9.33317 11.8501C8.66467 12.5581 7.71727 13 6.66667 13C6.2588 13 5.86648 12.9334 5.5 12.8105V19H18.5V12.8106C18.1336 12.9334 17.7414 13 17.3337 13C16.2828 13 15.3352 12.5579 14.6667 11.8496ZM8.33301 9.33333V5H5V9.33333C5 10.2538 5.74619 11 6.66667 11C7.57792 11 8.31837 10.2687 8.33311 9.36094L8.33301 9.33333ZM11.9997 11C11.0884 11 10.348 10.2687 10.3332 9.36094L10.3333 9.33333V5H13.6663V9.33333C13.6663 10.2538 12.9201 11 11.9997 11ZM15.667 9.33333V5H19.0003V9.33333C19.0003 10.2538 18.2541 11 17.3337 11C16.4132 11 15.667 10.2538 15.667 9.33333Z" fill="currentColor"/>
</g>
</svg>
