<svg width="24" height="24" viewBox="0 0 24 24" fill="none" xmlns="http://www.w3.org/2000/svg">
  <path fill-rule="evenodd" clip-rule="evenodd" d="M10.2055 2.3838C10.9381 0.893797 13.0623 0.893793 13.795 2.3838L16.0645 6.99936L21.1453 7.74043C22.7835 7.97937 23.4387 9.99153 22.2552 11.1492L18.5737 14.7504L19.4423 19.8319C19.7218 21.4667 18.0045 22.7117 16.5376 21.9377L12.0002 19.5436L7.46285 21.9377C5.99598 22.7117 4.27865 21.4667 4.55811 19.8319L5.42676 14.7504L1.74525 11.1492C0.561758 9.99153 1.21691 7.97937 2.85513 7.74043L7.93596 6.99936L10.2055 2.3838ZM14.2697 7.88186L12.0002 3.2663L9.73073 7.88186C9.43998 8.47317 8.87664 8.88332 8.22461 8.97842L3.14378 9.71949L6.82529 13.3207C7.29469 13.7799 7.5088 14.4402 7.39816 15.0874L6.52952 20.1689L11.0669 17.7747C11.6509 17.4666 12.3495 17.4666 12.9336 17.7747L17.4709 20.1689L16.6023 15.0874C16.4916 14.4402 16.7058 13.7799 17.1751 13.3207L20.8567 9.71949L15.7758 8.97842C15.1238 8.88332 14.5605 8.47317 14.2697 7.88186Z" fill="currentColor"/>
</svg>