<svg width="22" height="22" viewBox="0 0 22 22" fill="none" xmlns="http://www.w3.org/2000/svg">
<mask id="path-1-inside-1_1561_2913" fill="currentColor">
<path fill-rule="evenodd" clip-rule="evenodd" d="M11 10C13.7614 10 16 7.76142 16 5C16 2.23858 13.7614 0 11 0C8.23858 0 6 2.23858 6 5C6 7.76142 8.23858 10 11 10ZM11.0956 11C5.63553 11 0 14.6667 0 14.6667V22H22V14.6667C22 14.6667 16.5557 11 11.0956 11Z"/>
</mask>
<path d="M0 14.6667L-1.09072 12.9903L-2 13.5819V14.6667H0ZM0 22H-2V24H0V22ZM22 22V24H24V22H22ZM22 14.6667H24V13.6023L23.1172 13.0078L22 14.6667ZM14 5C14 6.65685 12.6569 8 11 8V12C14.866 12 18 8.86599 18 5H14ZM11 2C12.6569 2 14 3.34315 14 5H18C18 1.13401 14.866 -2 11 -2V2ZM8 5C8 3.34315 9.34315 2 11 2V-2C7.13401 -2 4 1.13401 4 5H8ZM11 8C9.34315 8 8 6.65685 8 5H4C4 8.86599 7.13401 12 11 12V8ZM0 14.6667C1.09072 16.3431 1.09038 16.3433 1.09006 16.3435C1.08998 16.3435 1.08968 16.3437 1.08953 16.3438C1.08921 16.3441 1.08898 16.3442 1.08884 16.3443C1.08854 16.3445 1.08859 16.3445 1.08896 16.3442C1.08971 16.3437 1.09179 16.3424 1.09518 16.3402C1.10197 16.3359 1.11397 16.3282 1.13104 16.3175C1.16517 16.2959 1.21945 16.2621 1.29249 16.2176C1.43867 16.1287 1.65934 15.9977 1.94331 15.8386C2.51265 15.5197 3.32879 15.0922 4.30315 14.6651C6.28939 13.7945 8.7674 13 11.0956 13V9C7.96374 9 4.89395 10.0388 2.6974 11.0016C1.58037 11.4912 0.646374 11.9803 -0.011577 12.3489C-0.341252 12.5335 -0.603515 12.689 -0.78686 12.8006C-0.878582 12.8564 -0.950703 12.9013 -1.00179 12.9335C-1.02734 12.9496 -1.04764 12.9626 -1.06252 12.9721C-1.06996 12.9768 -1.07604 12.9808 -1.08075 12.9838C-1.0831 12.9853 -1.08511 12.9866 -1.08678 12.9877C-1.08761 12.9882 -1.08835 12.9887 -1.08901 12.9892C-1.08934 12.9894 -1.08977 12.9896 -1.08993 12.9898C-1.09034 12.99 -1.09072 12.9903 0 14.6667ZM2 22V14.6667H-2V22H2ZM22 20H0V24H22V20ZM20 14.6667V22H24V14.6667H20ZM11.0956 13C13.4192 13 15.846 13.7921 17.7768 14.6582C18.7247 15.0833 19.5148 15.5089 20.0644 15.826C20.3386 15.9842 20.551 16.1143 20.6912 16.2025C20.7613 16.2465 20.8131 16.28 20.8455 16.3011C20.8617 16.3116 20.8731 16.3191 20.8793 16.3232C20.8825 16.3253 20.8843 16.3266 20.8849 16.327C20.8852 16.3272 20.8852 16.3271 20.8848 16.3269C20.8846 16.3268 20.8844 16.3266 20.884 16.3264C20.8839 16.3263 20.8836 16.326 20.8835 16.326C20.8831 16.3258 20.8828 16.3255 22 14.6667C23.1172 13.0078 23.1168 13.0075 23.1164 13.0073C23.1162 13.0071 23.1158 13.0068 23.1155 13.0066C23.1148 13.0062 23.114 13.0057 23.1132 13.0051C23.1115 13.004 23.1095 13.0026 23.1072 13.0011C23.1025 12.9979 23.0964 12.9939 23.0891 12.9891C23.0744 12.9793 23.0545 12.9662 23.0295 12.9499C22.9795 12.9173 22.9091 12.872 22.8196 12.8158C22.6408 12.7034 22.3852 12.547 22.0636 12.3615C21.4218 11.9911 20.5096 11.5 19.4139 11.0085C17.2575 10.0413 14.2321 9 11.0956 9V13Z" fill="currentColor" mask="url(#path-1-inside-1_1561_2913)"/>
</svg>
