<svg width="24" height="24" viewBox="0 0 24 24" fill="none" xmlns="http://www.w3.org/2000/svg">
  <mask id="path-1-inside-1_2438_3757" fill="white">
    <path fill-rule="evenodd" clip-rule="evenodd" d="M12 11C14.7614 11 17 8.76142 17 6C17 3.23858 14.7614 1 12 1C9.23858 1 7 3.23858 7 6C7 8.76142 9.23858 11 12 11ZM12.0956 12C6.63553 12 1 15.6667 1 15.6667V23H23V15.6667C23 15.6667 17.5557 12 12.0956 12Z"/>
  </mask>
  <path d="M1 15.6667L-0.0907235 13.9903L-1 14.5819V15.6667H1ZM1 23H-1V25H1V23ZM23 23V25H25V23H23ZM23 15.6667H25V14.6023L24.1172 14.0078L23 15.6667ZM15 6C15 7.65685 13.6569 9 12 9V13C15.866 13 19 9.86599 19 6H15ZM12 3C13.6569 3 15 4.34315 15 6H19C19 2.13401 15.866 -1 12 -1V3ZM9 6C9 4.34315 10.3431 3 12 3V-1C8.13401 -1 5 2.13401 5 6H9ZM12 9C10.3431 9 9 7.65685 9 6H5C5 9.86599 8.13401 13 12 13V9ZM1 15.6667C2.09072 17.3431 2.09038 17.3433 2.09006 17.3435C2.08998 17.3435 2.08968 17.3437 2.08953 17.3438C2.08921 17.3441 2.08898 17.3442 2.08884 17.3443C2.08854 17.3445 2.08859 17.3445 2.08896 17.3442C2.08971 17.3437 2.09179 17.3424 2.09518 17.3402C2.10197 17.3359 2.11397 17.3282 2.13104 17.3175C2.16517 17.2959 2.21945 17.2621 2.29249 17.2176C2.43867 17.1287 2.65934 16.9977 2.94331 16.8386C3.51265 16.5197 4.32879 16.0922 5.30315 15.6651C7.28939 14.7945 9.7674 14 12.0956 14V10C8.96374 10 5.89395 11.0388 3.6974 12.0016C2.58037 12.4912 1.64637 12.9803 0.988423 13.3489C0.658748 13.5335 0.396485 13.689 0.21314 13.8006C0.121418 13.8564 0.0492966 13.9013 -0.00179005 13.9335C-0.027338 13.9496 -0.0476404 13.9626 -0.0625184 13.9721C-0.0699579 13.9768 -0.0760427 13.9808 -0.0807505 13.9838C-0.0831045 13.9853 -0.0851144 13.9866 -0.0867774 13.9877C-0.0876089 13.9882 -0.0883538 13.9887 -0.0890115 13.9892C-0.0893402 13.9894 -0.0897688 13.9896 -0.0899329 13.9898C-0.0903389 13.99 -0.0907235 13.9903 1 15.6667ZM3 23V15.6667H-1V23H3ZM23 21H1V25H23V21ZM21 15.6667V23H25V15.6667H21ZM12.0956 14C14.4192 14 16.846 14.7921 18.7768 15.6582C19.7247 16.0833 20.5148 16.5089 21.0644 16.826C21.3386 16.9842 21.551 17.1143 21.6912 17.2025C21.7613 17.2465 21.8131 17.28 21.8455 17.3011C21.8617 17.3116 21.8731 17.3191 21.8793 17.3232C21.8825 17.3253 21.8843 17.3266 21.8849 17.327C21.8852 17.3272 21.8852 17.3271 21.8848 17.3269C21.8846 17.3268 21.8844 17.3266 21.884 17.3264C21.8839 17.3263 21.8836 17.326 21.8835 17.326C21.8831 17.3258 21.8828 17.3255 23 15.6667C24.1172 14.0078 24.1168 14.0075 24.1164 14.0073C24.1162 14.0071 24.1158 14.0068 24.1155 14.0066C24.1148 14.0062 24.114 14.0057 24.1132 14.0051C24.1115 14.004 24.1095 14.0026 24.1072 14.0011C24.1025 13.9979 24.0964 13.9939 24.0891 13.9891C24.0744 13.9793 24.0545 13.9662 24.0295 13.9499C23.9795 13.9173 23.9091 13.872 23.8196 13.8158C23.6408 13.7034 23.3852 13.547 23.0636 13.3615C22.4218 12.9911 21.5096 12.5 20.4139 12.0085C18.2575 11.0413 15.2321 10 12.0956 10V14Z" fill="currentColor" mask="url(#path-1-inside-1_2438_3757)"/>
</svg>