<svg width="24" height="24" viewBox="0 0 24 24" fill="none" xmlns="http://www.w3.org/2000/svg">
<path d="M4 20C4 16.8874 6.30185 13.624 9.49124 12.4519C10.2803 12.162 11.1237 12 12 12C12.8763 12 13.7197 12.162 14.5088 12.4519C17.6981 13.624 20 16.8874 20 20H18C18 18.652 17.3614 17.1294 16.2111 15.9259C15.0728 14.735 13.572 14 12 14C10.428 14 8.92722 14.735 7.78895 15.9259C6.63863 17.1294 6 18.652 6 20H4Z" fill="#313438"/>
<path fill-rule="evenodd" clip-rule="evenodd" d="M12 11C11.1532 11 10.3679 10.7369 9.72132 10.2879C8.68108 9.56564 8 8.36236 8 7C8 4.79086 9.79086 3 12 3C14.2091 3 16 4.79086 16 7C16 8.36236 15.3189 9.56564 14.2787 10.2879C13.6321 10.7369 12.8468 11 12 11ZM14 7C14 8.10457 13.1046 9 12 9C10.8954 9 10 8.10457 10 7C10 5.89543 10.8954 5 12 5C13.1046 5 14 5.89543 14 7Z" fill="currentColor"/>
</svg>
