<svg width="24" height="24" viewBox="0 0 24 24" fill="none" xmlns="http://www.w3.org/2000/svg">
<path d="M12 18.9987C10.3599 19.0191 8.7367 18.6652 7.254 17.9638C6.10469 17.4031 5.07265 16.6288 4.213 15.6822C3.30243 14.7035 2.58547 13.5612 2.1 12.3157L2 11.9998L2.105 11.6838C2.59082 10.4394 3.30624 9.29744 4.214 8.31732C5.07334 7.37078 6.10504 6.59645 7.254 6.03567C8.73671 5.33437 10.3599 4.98045 12 5.00083C13.6401 4.98048 15.2633 5.3344 16.746 6.03567C17.8953 6.59632 18.9274 7.37066 19.787 8.31732C20.6993 9.29473 21.4165 10.4374 21.9 11.6838L22 11.9998L21.895 12.3157C20.3262 16.3989 16.3742 19.068 12 18.9987ZM12 7.00053C8.59587 6.89387 5.47142 8.87533 4.117 11.9998C5.4712 15.1244 8.59579 17.1059 12 16.999C15.4041 17.1054 18.5284 15.124 19.883 11.9998C18.5304 8.87382 15.4047 6.89162 12 7.00053ZM12 14.9993C10.5573 15.0088 9.30937 13.9968 9.02097 12.5834C8.73256 11.1701 9.48427 9.75013 10.8154 9.19385C12.1465 8.63757 13.6852 9.10034 14.4885 10.2985C15.2919 11.4967 15.1354 13.0957 14.115 14.1154C13.5563 14.6806 12.7948 14.9989 12 14.9993Z" fill="#313438"/>
</svg>
