<svg width="24" height="24" viewBox="0 0 24 24" fill="none" xmlns="http://www.w3.org/2000/svg">
<path fill-rule="evenodd" clip-rule="evenodd" d="M3 12C3 7.02944 7.02944 3 12 3C16.9706 3 21 7.02944 21 12C21 16.9706 16.9706 21 12 21C7.02944 21 3 16.9706 3 12ZM12 5C8.13401 5 5 8.13401 5 12C5 15.866 8.13401 19 12 19C15.866 19 19 15.866 19 12C19 8.13401 15.866 5 12 5Z" fill="currentColor"/>
<path d="M15.2795 8H17.3877L16.3877 11H18.0003V13H15.721L14.721 16H13.2795L12.2795 13H11.721L10.721 16H9.2795L8.2795 13H6.00026V11H7.61284L6.61283 8H8.72102L9.72102 11H10.2795L11.2795 8H12.721L13.721 11H14.2795L15.2795 8Z" fill="currentColor"/>
</svg>
