<svg width="24" height="24" viewBox="0 0 24 24" fill="none" xmlns="http://www.w3.org/2000/svg">
<path d="M14.7018 3.80705C14.3042 4.26319 13.8188 4.63746 13.2457 4.92985C12.6843 5.21056 12.1287 5.32751 11.579 5.28073C11.4971 4.70763 11.5673 4.12868 11.7895 3.54389C12.0118 2.95909 12.3159 2.45032 12.7018 2.01757C13.0527 1.58482 13.5205 1.2164 14.1053 0.912309C14.6901 0.608216 15.2398 0.444473 15.7545 0.421082C15.8246 1.00588 15.7603 1.59652 15.5615 2.19301C15.3626 2.7895 15.0761 3.32751 14.7018 3.80705ZM11.7018 6.47371C11.8422 6.47371 12.0176 6.43863 12.2281 6.36845C12.4504 6.29827 12.6784 6.2164 12.9123 6.12284C13.4738 5.90061 13.965 5.73687 14.386 5.63161C14.8188 5.51465 15.2749 5.47956 15.7545 5.52635C16.3509 5.53804 17.0059 5.69009 17.7194 5.98249C18.4328 6.26319 19.0585 6.8012 19.5966 7.59652C19.4445 7.6667 19.1872 7.85968 18.8246 8.17547C18.4621 8.49126 18.117 8.94155 17.7895 9.52634C17.4738 10.1111 17.3217 10.8012 17.3334 11.5965C17.3334 12.5322 17.5381 13.3158 17.9474 13.9474C18.3685 14.579 18.8129 15.0527 19.2808 15.3685C19.7486 15.6842 20.0293 15.8421 20.1229 15.8421C20.1229 15.8889 20.0644 16.0702 19.9474 16.386C19.8305 16.7018 19.6609 17.0819 19.4387 17.5263C19.2281 17.9591 18.965 18.3977 18.6492 18.8421C18.1229 19.6492 17.62 20.2807 17.1404 20.7369C16.6726 21.1813 16.117 21.4094 15.4738 21.4211C15.158 21.4328 14.8831 21.4094 14.6492 21.3509C14.4153 21.2807 14.1404 21.1755 13.8246 21.0351C13.4854 20.8948 13.1872 20.7895 12.9299 20.7193C12.6726 20.6375 12.3626 20.5965 12.0001 20.5965C11.6024 20.5965 11.2632 20.6375 10.9825 20.7193C10.7135 20.7895 10.3977 20.9065 10.0352 21.0702C9.75445 21.1872 9.50884 21.2807 9.29832 21.3509C9.08779 21.4211 8.84802 21.462 8.57902 21.4737C7.93574 21.4854 7.35095 21.2515 6.82463 20.772C6.31001 20.2807 5.77785 19.6141 5.22814 18.772C4.59656 17.848 4.07024 16.7603 3.64919 15.5088C3.23983 14.2456 3.03516 12.9649 3.03516 11.6667C3.03516 10.3568 3.32171 9.19301 3.89481 8.17547C4.36264 7.38015 4.98252 6.74857 5.75445 6.28073C6.52638 5.81289 7.35679 5.56728 8.24568 5.54389C8.58486 5.53219 8.9182 5.57898 9.24568 5.68424C9.57317 5.77781 9.95913 5.91231 10.4036 6.08775C11.0001 6.34506 11.4328 6.47371 11.7018 6.47371Z" fill="currentColor"/>
</svg>
