<svg width="24" height="24" viewBox="0 0 24 24" fill="none" xmlns="http://www.w3.org/2000/svg">
<path fill-rule="evenodd" clip-rule="evenodd" d="M22 2H2V22H22V2ZM9.5 12C9.5 12.8284 8.82843 13.5 8 13.5C7.17157 13.5 6.5 12.8284 6.5 12C6.5 11.1716 7.17157 10.5 8 10.5C8.82843 10.5 9.5 11.1716 9.5 12ZM11.5 12C11.5 13.933 9.933 15.5 8 15.5C6.067 15.5 4.5 13.933 4.5 12C4.5 10.067 6.067 8.5 8 8.5C9.933 8.5 11.5 10.067 11.5 12ZM15.8284 13.3286L13.8536 15.3035L12.4394 13.8892L14.4142 11.9144L12.5 10.0002L13.9142 8.58594L15.8284 10.5002L17.7427 8.58594L19.1569 10.0002L17.2427 11.9144L19.2175 13.8892L17.8033 15.3035L15.8284 13.3286Z" fill="currentColor"/>
</svg>
