<svg width="24" height="24" viewBox="0 0 24 24" fill="none" xmlns="http://www.w3.org/2000/svg">
<path d="M22.9997 8.26674C23.0271 10.5646 21.8575 12.6504 20.4292 14.3696L20.4155 14.3861L20.4011 14.402C18.4371 16.5697 16.3297 18.603 14.093 20.488L11.9945 22.3388L9.89438 20.4559C7.65698 18.5753 5.55276 16.5417 3.5969 14.3698L3.58611 14.3578L3.57571 14.3455C1.86809 12.3216 1 10.4605 1 8.40061C1 6.70323 1.67428 5.07536 2.87452 3.87513C4.07475 2.6749 5.70261 2.00061 7.4 2.00061C8.43044 2.00065 9.44573 2.2023 10.3856 2.63045C10.9704 2.8969 11.5143 3.2419 12.0026 3.65468C12.4908 3.24455 13.0336 2.9014 13.6168 2.63572C14.519 2.22473 15.4976 2.00836 16.4889 2.00067C18.1802 1.97626 19.8128 2.62029 21.032 3.7929C22.2521 4.96642 22.9593 6.57435 22.9997 8.26674Z" fill="currentColor"/>
</svg>
