<svg width="24" height="24" viewBox="0 0 24 24" fill="none" xmlns="http://www.w3.org/2000/svg">
<path d="M14.7018 3.80699C14.3042 4.26313 13.8188 4.63739 13.2457 4.92979C12.6843 5.21049 12.1287 5.32745 11.579 5.28067C11.4971 4.70757 11.5673 4.12862 11.7895 3.54383C12.0118 2.95903 12.3159 2.45026 12.7018 2.01751C13.0527 1.58476 13.5205 1.21634 14.1053 0.912248C14.6901 0.608155 15.2398 0.444412 15.7545 0.421021C15.8246 1.00582 15.7603 1.59646 15.5615 2.19295C15.3626 2.78944 15.0761 3.32745 14.7018 3.80699ZM11.7018 6.47365C11.8422 6.47365 12.0176 6.43856 12.2281 6.36839C12.4504 6.29821 12.6784 6.21634 12.9123 6.12277C13.4738 5.90055 13.965 5.73681 14.386 5.63155C14.8188 5.51459 15.2749 5.4795 15.7545 5.52628C16.3509 5.53798 17.0059 5.69003 17.7194 5.98242C18.4328 6.26313 19.0585 6.80114 19.5966 7.59646C19.4445 7.66663 19.1872 7.85962 18.8246 8.17541C18.4621 8.4912 18.117 8.94149 17.7895 9.52628C17.4738 10.1111 17.3217 10.8011 17.3334 11.5965C17.3334 12.5321 17.5381 13.3158 17.9474 13.9473C18.3685 14.5789 18.8129 15.0526 19.2808 15.3684C19.7486 15.6842 20.0293 15.8421 20.1229 15.8421C20.1229 15.8889 20.0644 16.0701 19.9474 16.3859C19.8305 16.7017 19.6609 17.0818 19.4387 17.5263C19.2281 17.959 18.965 18.3976 18.6492 18.8421C18.1229 19.6491 17.62 20.2807 17.1404 20.7368C16.6726 21.1813 16.117 21.4093 15.4738 21.421C15.158 21.4327 14.8831 21.4093 14.6492 21.3508C14.4153 21.2807 14.1404 21.1754 13.8246 21.0351C13.4854 20.8947 13.1872 20.7894 12.9299 20.7193C12.6726 20.6374 12.3626 20.5965 12.0001 20.5965C11.6024 20.5965 11.2632 20.6374 10.9825 20.7193C10.7135 20.7894 10.3977 20.9064 10.0352 21.0701C9.75445 21.1871 9.50884 21.2807 9.29832 21.3508C9.08779 21.421 8.84802 21.462 8.57902 21.4737C7.93574 21.4853 7.35095 21.2514 6.82463 20.7719C6.31001 20.2807 5.77785 19.614 5.22814 18.7719C4.59656 17.8479 4.07024 16.7602 3.64919 15.5087C3.23983 14.2456 3.03516 12.9649 3.03516 11.6666C3.03516 10.3567 3.32171 9.19295 3.89481 8.17541C4.36264 7.38009 4.98252 6.74851 5.75445 6.28067C6.52638 5.81283 7.35679 5.56722 8.24568 5.54383C8.58486 5.53213 8.9182 5.57892 9.24568 5.68418C9.57317 5.77775 9.95913 5.91225 10.4036 6.08769C11.0001 6.345 11.4328 6.47365 11.7018 6.47365Z" fill="#313438"/>
</svg>
