<svg width="24" height="24" viewBox="0 0 24 24" fill="none" xmlns="http://www.w3.org/2000/svg">
  <path d="M9.5 11.5C9.5 10.1193 10.6193 9 12 9C13.3807 9 14.5 10.1193 14.5 11.5C14.5 12.8807 13.3807 14 12 14C10.6193 14 9.5 12.8807 9.5 11.5Z" fill="currentColor"/>
  <path fill-rule="evenodd" clip-rule="evenodd" d="M10.4142 3C9.88378 3 9.37507 3.21071 9 3.58579L7.58579 5H5C3.89543 5 3 5.89543 3 7V17C3 18.1046 3.89543 19 5 19H19C20.1046 19 21 18.1046 21 17V7C21 5.89543 20.1046 5 19 5L16.4142 5L15 3.58579C14.6249 3.21071 14.1162 3 13.5858 3H10.4142ZM12 7C9.51472 7 7.5 9.01472 7.5 11.5C7.5 13.9853 9.51472 16 12 16C14.4853 16 16.5 13.9853 16.5 11.5C16.5 9.01472 14.4853 7 12 7Z" fill="currentColor"/>
</svg>