<svg width="24" height="24" viewBox="0 0 24 24" fill="none" xmlns="http://www.w3.org/2000/svg">
<path d="M12 9C10.6193 9 9.5 10.1193 9.5 11.5C9.5 12.8807 10.6193 14 12 14C13.3807 14 14.5 12.8807 14.5 11.5C14.5 10.1193 13.3807 9 12 9Z" fill="currentColor"/>
<path fill-rule="evenodd" clip-rule="evenodd" d="M9.58579 3H14.4142L16.4142 5H19C20.1046 5 21 5.89543 21 7V17C21 18.1046 20.1046 19 19 19H5C3.89543 19 3 18.1046 3 17V7C3 5.89543 3.89543 5 5 5H7.58579L9.58579 3ZM7.5 11.5C7.5 9.01472 9.51472 7 12 7C14.4853 7 16.5 9.01472 16.5 11.5C16.5 13.9853 14.4853 16 12 16C9.51472 16 7.5 13.9853 7.5 11.5Z" fill="currentColor"/>
</svg>
