<svg width="24" height="24" viewBox="0 0 24 24" fill="none" xmlns="http://www.w3.org/2000/svg">
<path d="M12 10.5C11.1716 10.5 10.5 11.1716 10.5 12C10.5 12.8284 11.1716 13.5 12 13.5C12.8284 13.5 13.5 12.8284 13.5 12C13.5 11.1716 12.8284 10.5 12 10.5Z" fill="currentColor"/>
<path fill-rule="evenodd" clip-rule="evenodd" d="M20 4H4V20H20V4ZM13 7V8.64494C14.1289 8.98091 15.0191 9.87111 15.3551 11H17V13H15.3551C15.0191 14.1289 14.1289 15.0191 13 15.3551V17H11V15.3551C9.87111 15.0191 8.98091 14.1289 8.64494 13H7V11H8.64494C8.98091 9.87111 9.87111 8.98091 11 8.64494V7H13Z" fill="currentColor"/>
</svg>
