<svg width="24" height="24" viewBox="0 0 24 24" fill="currentColor" xmlns="http://www.w3.org/2000/svg">
  <path d="M22 8.29062V8.40061C22 10.1406 21.28 11.7806 19.66 13.7306C17.7236 15.8679 15.6456 17.8724 13.44 19.7306L12 21.0006L10.55 19.7006C8.34346 17.8469 6.26846 15.8421 4.34 13.7006C2.72 11.7806 2 10.1406 2 8.40061C2 6.96844 2.56893 5.59493 3.58162 4.58224C4.59432 3.56954 5.96783 3.00061 7.4 3.00061H7.5C8.35267 3.00294 9.19506 3.18698 9.97101 3.54047C10.747 3.89396 11.4387 4.40878 12 5.05061C12.5638 4.41175 13.256 3.89897 14.0314 3.54574C14.8068 3.1925 15.648 3.00675 16.5 3.00061C17.929 2.97911 19.3087 3.5229 20.3388 4.51363C21.3688 5.50436 21.9659 6.86184 22 8.29062Z" fill="currentColor"/>
</svg>
