<svg width="24" height="24" viewBox="0 0 24 24" fill="none" xmlns="http://www.w3.org/2000/svg">
<path d="M22 9.29062V9.40061C22 11.1406 21.28 12.7806 19.66 14.7306C17.7236 16.8679 15.6456 18.8724 13.44 20.7306L12 22.0006L10.55 20.7006C8.34346 18.8469 6.26846 16.8421 4.34 14.7006C2.72 12.7806 2 11.1406 2 9.40061C2 7.96844 2.56893 6.59493 3.58162 5.58224C4.59432 4.56954 5.96783 4.00061 7.4 4.00061H7.5C8.35267 4.00294 9.19506 4.18698 9.97101 4.54047C10.747 4.89396 11.4387 5.40878 12 6.05061C12.5638 5.41175 13.256 4.89897 14.0314 4.54574C14.8068 4.1925 15.648 4.00675 16.5 4.00061C17.929 3.97911 19.3087 4.5229 20.3388 5.51363C21.3688 6.50436 21.9659 7.86184 22 9.29062Z" fill="currentColor"/>
</svg>
