<svg width="24" height="24" viewBox="0 0 24 24" fill="none" xmlns="http://www.w3.org/2000/svg">
  <path d="M24 7.46609V7.60052C24 9.72712 23.136 11.7315 21.192 14.1147C18.8683 16.7269 16.3747 19.1768 13.728 21.4478L12 23L10.26 21.4112C7.61215 19.1456 5.12215 16.6954 2.808 14.0781C0.864 11.7315 0 9.72712 0 7.60052C0 5.85016 0.682712 4.17148 1.89795 2.93378C3.11318 1.69608 4.7614 1.00075 6.48 1.00075H6.6C7.62321 1.0036 8.63407 1.22853 9.56521 1.66055C10.4964 2.09258 11.3264 2.72178 12 3.50622C12.6766 2.72542 13.5072 2.09871 14.4377 1.66699C15.3681 1.23527 16.3775 1.00825 17.4 1.00075C19.1148 0.974471 20.7704 1.63908 22.0065 2.84993C23.2426 4.06078 23.9591 5.71986 24 7.46609V7.46609Z" fill="currentColor"/>
</svg>