<svg width="24" height="24" viewBox="0 0 24 24" fill="none" xmlns="http://www.w3.org/2000/svg">
<g id="legit-filled">
<g id="icon">
<path d="M8 13.5C8.82843 13.5 9.5 12.8284 9.5 12C9.5 11.1716 8.82843 10.5 8 10.5C7.17157 10.5 6.5 11.1716 6.5 12C6.5 12.8284 7.17157 13.5 8 13.5Z" fill="currentColor"/>
<path fill-rule="evenodd" clip-rule="evenodd" d="M21 3H3V21H21V3ZM8 15.5C9.933 15.5 11.5 13.933 11.5 12C11.5 10.067 9.933 8.5 8 8.5C6.067 8.5 4.5 10.067 4.5 12C4.5 13.933 6.067 15.5 8 15.5ZM12.5 10.0002L14.4142 11.9144L12.4394 13.8892L13.8536 15.3035L15.8284 13.3286L17.8033 15.3035L19.2175 13.8892L17.2426 11.9144L19.1569 10.0002L17.7427 8.58594L15.8284 10.5002L13.9142 8.58594L12.5 10.0002Z" fill="currentColor"/>
</g>
</g>
</svg>
