<svg width="24" height="24" viewBox="0 0 24 24" fill="none" xmlns="http://www.w3.org/2000/svg">
  <path fill-rule="evenodd" clip-rule="evenodd" d="M9.60579 7.83153C9.29347 6.9723 8.61326 5.94774 7.66439 4.99884C5.8979 3.23231 3.86921 2.39694 3.13317 3.13299C2.39713 3.86905 3.23248 5.8978 4.99897 7.66434C5.94807 8.61347 6.97287 9.2938 7.8322 9.60602V14.9158L14.9163 22L22.0003 14.9158L14.9163 7.83153H9.60579ZM11.0211 12.0821C11.6079 12.0821 12.0837 11.6064 12.0837 11.0195C12.0837 10.4326 11.6079 9.95685 11.0211 9.95685C10.4342 9.95685 9.95846 10.4326 9.95846 11.0195C9.95846 11.6064 10.4342 12.0821 11.0211 12.0821Z" fill="currentColor"/>
</svg>