<svg width="24" height="24" viewBox="0 0 24 24" fill="none" xmlns="http://www.w3.org/2000/svg">
<path d="M16.1717 19L20.5859 23.4142L22.0002 22L2.00015 2L0.585938 3.41421L5.26331 8.09158C5.09178 8.69826 5 9.33841 5 10V17H3V19H16.1717Z" fill="currentColor"/>
<path d="M21 17V18.1716L19.8284 17H21Z" fill="currentColor"/>
<path d="M19 10V16.1716L7.48171 4.65331C8.70101 3.62187 10.2779 3 12 3C15.866 3 19 6.13401 19 10Z" fill="currentColor"/>
<path d="M14 20C14 21.1046 13.1046 22 12 22C10.8954 22 10 21.1046 10 20H14Z" fill="currentColor"/>
</svg>
