<svg width="24" height="24" viewBox="0 0 24 24" fill="none" xmlns="http://www.w3.org/2000/svg">
<path fill-rule="evenodd" clip-rule="evenodd" d="M7.58273 4.62954C6.76313 3.79015 5.4343 3.79015 4.6147 4.62954C3.7951 5.46891 3.7951 6.82982 4.6147 7.6692L9.03197 12.1931L4.99177 16.3308C4.17217 17.1702 4.17218 18.5311 4.99177 19.3705C5.81137 20.2098 7.1402 20.2098 7.9598 19.3705L12 15.2328L16.0402 19.3705C16.8598 20.2098 18.1886 20.2098 19.0082 19.3705C19.8278 18.5311 19.8278 17.1702 19.0082 16.3308L14.968 12.1931L19.3853 7.6692C20.2049 6.82982 20.2049 5.46891 19.3853 4.62954C18.5657 3.79015 17.2369 3.79015 16.4173 4.62954L12 9.15342L7.58273 4.62954Z" fill="currentColor"/>
</svg>
