<svg width="24" height="24" viewBox="0 0 24 24" fill="none" xmlns="http://www.w3.org/2000/svg">
  <path d="M12.1458 3.29999C9.38579 3.29999 7.10579 4.59599 6.52979 7.61999L10.2258 8.53199C10.3218 7.69199 10.8258 6.87599 11.8578 6.87599C12.8418 6.87599 13.3698 7.45199 13.3698 8.26799C13.3698 9.94799 10.2738 10.932 10.2738 14.316H14.0418C14.0418 11.628 17.4738 11.388 17.4738 7.90799C17.4738 5.62799 15.6978 3.29999 12.1458 3.29999ZM12.1458 16.38C10.9698 16.38 10.0098 17.364 10.0098 18.54C10.0098 19.74 10.9698 20.7 12.1458 20.7C13.3458 20.7 14.3058 19.74 14.3058 18.54C14.3058 17.364 13.3458 16.38 12.1458 16.38Z" fill="currentColor"/>
</svg>