<svg width="24" height="24" viewBox="0 0 24 24" fill="none" xmlns="http://www.w3.org/2000/svg">
<path fill-rule="evenodd" clip-rule="evenodd" d="M3 12C3 7.02944 7.02944 3 12 3C16.9706 3 21 7.02944 21 12C21 16.9706 16.9706 21 12 21C7.02944 21 3 16.9706 3 12ZM13.25 15.75C13.25 16.4404 12.6904 17 12 17C11.3096 17 10.75 16.4404 10.75 15.75C10.75 15.0596 11.3096 14.5 12 14.5C12.6904 14.5 13.25 15.0596 13.25 15.75ZM11 10C11 9.40943 11.4094 9 12 9C12.4189 9 12.6746 9.10603 12.8039 9.20944C12.9031 9.28882 13 9.41911 13 9.71429C13 9.9144 12.9531 9.98457 12.9066 10.0427C12.8315 10.1366 12.7489 10.2031 12.5797 10.3391C12.5201 10.387 12.4498 10.4436 12.3653 10.513C12.0827 10.7451 11.7155 11.0742 11.4359 11.5835C11.1528 12.0991 11 12.7222 11 13.5H13C13 12.9921 13.0972 12.7134 13.1891 12.546C13.2845 12.3723 13.4173 12.2371 13.6347 12.0584C13.6638 12.0345 13.6987 12.0069 13.7378 11.9759C13.9347 11.8196 14.2402 11.5773 14.4684 11.2921C14.7969 10.8815 15 10.3713 15 9.71429C15 8.86661 14.6683 8.13975 14.0533 7.6477C13.4682 7.17969 12.7239 7 12 7C10.3049 7 9 8.30486 9 10H11Z" fill="currentColor"/>
</svg>
