<svg width="24" height="24" viewBox="0 0 24 24" fill="none" xmlns="http://www.w3.org/2000/svg">
  <g clip-path="url(#clip0_2438_3739)">
    <path fill-rule="evenodd" clip-rule="evenodd" d="M3.99958 3.00097H2.09556C2.1628 3.65128 2.29952 4.32913 2.60935 4.92C2.83066 5.34206 3.12994 5.697 3.5379 5.96341C3.67306 6.05166 3.82584 6.13395 3.99958 6.20696V3.00097ZM3.99958 1.24994H-0.000488281L0.0364905 2.1567C0.071822 3.02305 0.146025 4.41916 0.791722 5.65056C1.1227 6.28177 1.61353 6.89122 2.34215 7.36702C2.81443 7.67542 3.36519 7.9136 3.99958 8.0695V8.24999C3.99958 12.3455 7.07705 15.7222 11.0456 16.1937V20.2501H6.0456V22.2501H18.0457V20.2501H13.0456V16.1823C16.9697 15.6698 19.9997 12.3138 19.9997 8.24999V8.06953C20.6341 7.91364 21.1849 7.67544 21.6573 7.36702C22.3859 6.89122 22.8767 6.28177 23.2077 5.65056C23.8534 4.41916 23.9276 3.02305 23.9629 2.1567L23.9999 1.24994H19.9997H19.5136H4.48577H3.99958ZM19.9997 6.20702V3.00097H21.9038C21.8366 3.65128 21.6999 4.32913 21.3901 4.92C21.1687 5.34206 20.8695 5.697 20.4615 5.96341C20.3263 6.05169 20.1735 6.13399 19.9997 6.20702Z" fill="currentColor"/>
  </g>
  <defs>
    <clipPath id="clip0_2438_3739">
      <rect width="24" height="24" fill="white"/>
    </clipPath>
  </defs>
</svg>
