<svg width="24" height="24" viewBox="0 0 24 24" fill="none" xmlns="http://www.w3.org/2000/svg">
<path fill-rule="evenodd" clip-rule="evenodd" d="M5 13C5 9.13401 8.13401 6 12 6C15.866 6 19 9.13401 19 13V19H21V21H3V19H5V13ZM7 19H17V13C17 10.2386 14.7614 8 12 8C9.23858 8 7 10.2386 7 13V19Z" fill="currentColor"/>
<path fill-rule="evenodd" clip-rule="evenodd" d="M13 2V5H11V2H13Z" fill="currentColor"/>
<path fill-rule="evenodd" clip-rule="evenodd" d="M20.4853 5.92893L18.364 8.05025L16.9497 6.63604L19.0711 4.51472L20.4853 5.92893Z" fill="currentColor"/>
<path fill-rule="evenodd" clip-rule="evenodd" d="M4.92893 4.51472L7.05025 6.63604L5.63604 8.05025L3.51472 5.92893L4.92893 4.51472Z" fill="currentColor"/>
<path d="M17 19H7V13C7 10.2386 9.23858 8 12 8C14.7614 8 17 10.2386 17 13V19Z" fill="currentColor"/>
</svg>
