<svg width="24" height="24" viewBox="0 0 24 24" fill="none" xmlns="http://www.w3.org/2000/svg">
  <path fill-rule="evenodd" clip-rule="evenodd" d="M18.8506 5.73826L13.2662 3.26822C12.4576 2.91059 11.5424 2.91059 10.7338 3.26822L5.14937 5.73826C4.75543 5.91251 4.5 6.31229 4.5 6.75463V12.5631C4.5 14.7058 5.50264 16.7165 7.19204 17.9619L10.7545 20.5881C11.4996 21.1373 12.5004 21.1373 13.2455 20.5881L16.808 17.9619C18.4974 16.7165 19.5 14.7058 19.5 12.5631V6.75463C19.5 6.31229 19.2446 5.91251 18.8506 5.73826ZM15.8321 9.5547C16.1384 9.09517 16.0142 8.4743 15.5547 8.16795C15.0952 7.8616 14.4743 7.98577 14.1679 8.4453L10.9108 13.331L9.76822 11.9598C9.41466 11.5355 8.78409 11.4782 8.35982 11.8318C7.93554 12.1853 7.87821 12.8159 8.23178 13.2402L9.80309 15.1258C10.445 15.896 11.6473 15.8318 12.2035 14.9975L15.8321 9.5547Z" fill="currentColor"/>
</svg>