<svg width="24" height="24" viewBox="0 0 24 24" fill="none" xmlns="http://www.w3.org/2000/svg">
<path fill-rule="evenodd" clip-rule="evenodd" d="M12 1.91211L20 5.34068V11.8831C20 14.7897 18.5963 17.5173 16.2311 19.2067L12 22.229L7.76886 19.2067C5.40369 17.5173 4 14.7897 4 11.8831V5.34068L12 1.91211ZM6 6.65947V11.8831C6 14.1438 7.09176 16.2653 8.93133 17.5793L12 19.7712L15.0687 17.5793C16.9082 16.2653 18 14.1438 18 11.8831V6.65947L12 4.08804L6 6.65947Z" fill="#313438"/>
<path fill-rule="evenodd" clip-rule="evenodd" d="M6 11.8831V6.65947L12 4.08804L18 6.65947V11.8831C18 14.1438 16.9082 16.2653 15.0687 17.5793L12 19.7712L8.93133 17.5793C7.09176 16.2653 6 14.1438 6 11.8831ZM7.29291 11.7038L8.70712 10.2896L11 12.5824L15.2929 8.28955L16.7071 9.70377L11 15.4109L7.29291 11.7038Z" fill="#313438"/>
</svg>
