<svg width="24" height="24" viewBox="0 0 24 24" fill="none" xmlns="http://www.w3.org/2000/svg">
<path d="M12.0005 15.4574C12.8943 15.4574 13.6583 15.1403 14.2925 14.5061C14.9267 13.8719 15.2438 13.1079 15.2438 12.2141C15.2438 11.3203 14.9267 10.5563 14.2925 9.92213C13.6583 9.28793 12.8943 8.97082 12.0005 8.97082C11.1067 8.97082 10.3427 9.28793 9.70846 9.92213C9.07426 10.5563 8.75715 11.3203 8.75715 12.2141C8.75715 13.1079 9.07426 13.8719 9.70846 14.5061C10.3427 15.1403 11.1067 15.4574 12.0005 15.4574ZM18.8774 13.1212L20.8234 14.6353C21.0251 14.7793 21.054 14.981 20.9101 15.2406L19.0499 18.4415C18.9343 18.6432 18.747 18.7011 18.488 18.6149L16.196 17.707C15.5907 18.1394 15.0715 18.4421 14.6385 18.6149L14.2925 21.037C14.2346 21.2966 14.0904 21.4264 13.8597 21.4264H10.1403C9.90961 21.4264 9.76536 21.2966 9.70754 21.037L9.36153 18.6149C8.81344 18.3843 8.29426 18.0816 7.804 17.707L5.512 18.6149C5.25241 18.7017 5.0651 18.6438 4.95007 18.4415L3.0899 15.2406C2.94596 14.981 2.97487 14.7793 3.17663 14.6353L5.12262 13.1212C5.09371 12.9194 5.07925 12.6167 5.07925 12.2132C5.07925 11.8097 5.09371 11.507 5.12262 11.3053L3.17663 9.79111C2.97487 9.64717 2.94596 9.4454 3.0899 9.18581L4.95007 5.98495C5.06572 5.78319 5.25303 5.72536 5.512 5.81148L7.804 6.71942C8.40929 6.28698 8.92847 5.98433 9.36153 5.81148L9.70754 3.38938C9.76536 3.12979 9.90961 3 10.1403 3H13.8597C14.0904 3 14.2346 3.12979 14.2925 3.38938L14.6385 5.81148C15.1866 6.04216 15.7057 6.34481 16.196 6.71942L18.488 5.81148C18.7476 5.72475 18.9349 5.78257 19.0499 5.98495L20.9101 9.18581C21.054 9.4454 21.0251 9.64717 20.8234 9.79111L18.8774 11.3053C18.9063 11.507 18.9207 11.8097 18.9207 12.2132C18.9207 12.6167 18.9063 12.9194 18.8774 13.1212Z" fill="currentColor"/>
</svg>
