<svg width="24" height="24" viewBox="0 0 24 24" fill="none" xmlns="http://www.w3.org/2000/svg">
  <path fill-rule="evenodd" clip-rule="evenodd" d="M17.5 9C19.433 9 21 7.433 21 5.5C21 3.567 19.433 2 17.5 2C15.567 2 14 3.567 14 5.5C14 5.78676 14.0345 6.06547 14.0995 6.3322L7.88576 9.43909C7.26063 8.85646 6.42194 8.5 5.5 8.5C3.567 8.5 2 10.067 2 12C2 13.933 3.567 15.5 5.5 15.5C6.42194 15.5 7.26063 15.1435 7.88576 14.5609L14.0995 17.6678C14.0345 17.9345 14 18.2132 14 18.5C14 20.433 15.567 22 17.5 22C19.433 22 21 20.433 21 18.5C21 16.567 19.433 15 17.5 15C16.5781 15 15.7394 15.3565 15.1142 15.9391L8.90046 12.8322C8.96551 12.5655 9 12.2868 9 12C9 11.7132 8.96551 11.4345 8.90046 11.1678L15.1142 8.06091C15.7394 8.64353 16.5781 9 17.5 9Z" fill="currentColor"/>
</svg>