<svg width="24" height="24" viewBox="0 0 24 24" fill="none" xmlns="http://www.w3.org/2000/svg">
  <path fill-rule="evenodd" clip-rule="evenodd" d="M9.48003 15.1343C7.07833 14.085 5.3999 11.6885 5.3999 8.90003C5.3999 5.1445 8.44436 2.10004 12.1999 2.10004C15.9554 2.10004 18.9999 5.1445 18.9999 8.90003C18.9999 11.6884 17.3216 14.0848 14.92 15.1342V15.87H17.5001L12.2 22.5L6.8999 15.87H9.48003V15.1343ZM12.8801 12.3H13.5601C14.6868 12.3 15.6001 11.3867 15.6001 10.26C15.6001 9.13339 14.6868 8.22005 13.5601 8.22005H10.8333C10.4578 8.22005 10.1533 7.9156 10.1533 7.54005C10.1533 7.1645 10.4578 6.86005 10.8333 6.86005H14.9201V5.50005H12.8801V4.14005H11.5201V5.50005H10.8401C9.71346 5.50005 8.80012 6.41339 8.80012 7.54005C8.80012 8.66671 9.71346 9.58005 10.8401 9.58005H13.5601C13.9357 9.58005 14.2401 9.8845 14.2401 10.26C14.2401 10.6356 13.9357 10.9401 13.5601 10.9401H9.48012V12.3H11.5201V13.66H12.8801V12.3Z" fill="currentColor"/>
</svg>