<svg width="24" height="24" viewBox="0 0 24 24" fill="none" xmlns="http://www.w3.org/2000/svg">
<path d="M12.1999 22.5L6.89987 15.87L17.5 15.87L12.1999 22.5Z" fill="currentColor"/>
<rect x="9.47998" y="14.3401" width="5.44" height="4.08" fill="currentColor"/>
<path fill-rule="evenodd" clip-rule="evenodd" d="M5.40002 8.90009C5.40002 12.6556 8.44449 15.7001 12.2 15.7001C15.9556 15.7001 19 12.6556 19 8.90009C19 5.14456 15.9556 2.1001 12.2 2.1001C8.44449 2.1001 5.40002 5.14456 5.40002 8.90009ZM13.5602 12.3001H12.8802V13.6601H11.5202V12.3001H9.48024V10.9401H13.5602C13.9358 10.9401 14.2402 10.6357 14.2402 10.2601C14.2402 9.88456 13.9358 9.58011 13.5602 9.58011H10.8402C9.71358 9.58011 8.80024 8.66677 8.80024 7.54011C8.80024 6.41345 9.71358 5.50011 10.8402 5.50011H11.5202V4.14011H12.8802V5.50011H14.9202V6.86011H10.8334C10.4579 6.86011 10.1534 7.16456 10.1534 7.54011C10.1534 7.91567 10.4579 8.22011 10.8334 8.22011H13.5602C14.6869 8.22011 15.6002 9.13345 15.6002 10.2601C15.6002 11.3868 14.6869 12.3001 13.5602 12.3001Z" fill="currentColor"/>
</svg>
