<svg width="24" height="24" viewBox="0 0 24 24" fill="none" xmlns="http://www.w3.org/2000/svg">
<path fill-rule="evenodd" clip-rule="evenodd" d="M13.7375 4.00707C12.9696 2.66431 11.0333 2.66431 10.2653 4.00707L2.26684 17.9922C1.50429 19.3255 2.46698 20.9852 4.00295 20.9852H19.9999C21.5359 20.9852 22.4985 19.3255 21.736 17.9922L13.7375 4.00707ZM10.7998 17.322C10.7998 16.636 11.3598 16.062 12.0458 16.062C12.7458 16.062 13.3058 16.636 13.3058 17.322C13.3058 18.022 12.7458 18.582 12.0458 18.582C11.3598 18.582 10.7998 18.022 10.7998 17.322ZM13.3058 8.59998L12.9838 14.858H11.1218L10.7998 8.59998H13.3058Z" fill="currentColor"/>
</svg>
