<svg width="24" height="24" viewBox="0 0 24 24" fill="none" xmlns="http://www.w3.org/2000/svg">
<path fill-rule="evenodd" clip-rule="evenodd" d="M21.04 5H18.96L17.2457 11H14.7543L13.04 5L10.96 5.00001L9.24568 11H6.75428L5.03999 5H2.95996L4.67425 11H2V13H5.24568L6.95996 19H9.04L10.7543 13H13.2457L14.96 19H17.04L18.7543 13H22V11H19.3257L21.04 5ZM16.6743 13H15.3257L16 15.36L16.6743 13ZM12.6742 11L12 8.64007L11.3257 11H12.6742ZM8.67425 13H7.32571L7.99998 15.36L8.67425 13Z" fill="currentColor"/>
</svg>
