<svg width="96" height="20" viewBox="0 0 96 20" fill="none" xmlns="http://www.w3.org/2000/svg">
<path d="M17.7793 16.416C15.8994 18.8049 13.2598 19.9998 9.82961 19.9998C3.85537 19.9998 0 16.0281 0 11.0231C0 5.88956 4.09036 1.94995 9.89533 1.94995C13.3265 1.94995 16.229 3.33885 17.9775 5.8574L14.3163 7.82623C13.0627 6.53479 11.8419 5.88956 9.92819 5.88956C6.56369 5.88956 4.41994 8.11668 4.41994 11.0875C4.41994 13.9939 6.49798 16.0583 9.73103 16.0583C11.6766 16.0583 13.227 15.4121 14.3163 14.0885L17.7793 16.416Z" fill="currentColor"/>
<path d="M33.3648 17.4851C31.8713 18.9149 30.2861 19.6605 28.1593 19.6605C23.8728 19.6605 20.127 16.0543 20.127 10.986C20.127 5.82807 23.6826 2.28516 28.0637 2.28516C30.095 2.28516 31.8414 3.03078 33.3648 4.52201V2.72376H37.5876V19.2249H33.3648V17.4851ZM24.3806 10.9548C24.3806 13.7813 26.2854 15.8652 28.921 15.8652C31.5238 15.8652 33.556 13.9383 33.556 10.9246C33.556 8.03374 31.5875 6.07661 28.921 6.07661C26.1271 6.0805 24.3806 8.25596 24.3806 10.9587V10.9548Z" fill="currentColor"/>
<path d="M56.7677 19.2258H52.5449V11.2394C52.5449 8.03861 51.9106 6.08149 49.5578 6.08149C47.4668 6.08149 45.9384 7.75888 45.9384 11.1497V19.2287H41.7196V2.72474H45.9414V4.62046C47.3702 3.09804 49.2113 2.29004 51.2117 2.29004C53.3026 2.29004 55.0849 3.25301 56.1324 5.2423C57.6877 3.31539 59.244 2.29004 61.783 2.29004C63.656 2.29004 65.3387 3.03566 66.2916 4.21695C67.4028 5.58148 67.5293 7.38656 67.5293 9.56201V19.2258H63.3075V10.1215C63.3075 7.41775 62.3227 6.08149 60.4199 6.08149C58.2931 6.08149 56.7697 7.69748 56.7697 11.0844L56.7677 19.2258Z" fill="currentColor"/>
<path d="M88.045 14.0585C86.9049 16.9279 84.8677 18.5731 81.4156 19.4075C76.207 20.6677 71.9036 17.7398 70.7157 13.0331C69.6105 8.65882 71.8259 3.83323 77.0962 2.55836C82.2739 1.30591 86.7018 4.07592 87.9812 9.1442C88.0729 9.50678 88.0878 9.69489 88.1804 10.0575L74.9883 13.2485C75.99 15.5341 78.1746 16.4143 80.5174 15.848C82.2739 15.423 83.3233 14.6569 84.1886 13.2953L88.045 14.0585ZM83.2805 7.88103C82.253 6.14514 80.2068 5.42292 78.0182 5.95216C75.985 6.4395 74.6647 7.8206 74.373 10.036L83.2805 7.88103Z" fill="currentColor"/>
<path d="M91.276 1.03217V19.2253H95.4988V0L91.276 1.03217Z" fill="currentColor"/>
</svg>
