<svg width="45" height="45" viewBox="0 0 45 45" fill="none" xmlns="http://www.w3.org/2000/svg">
<path d="M22.4999 0C18.0499 0 13.6997 1.3196 9.99962 3.79193C6.29952 6.26426 3.41563 9.77828 1.71266 13.8896C0.0096909 18.001 -0.435888 22.525 0.432279 26.8895C1.30045 31.2541 3.44336 35.2632 6.59004 38.4099C9.73672 41.5566 13.7458 43.6995 18.1104 44.5677C22.475 45.4358 26.999 44.9903 31.1103 43.2873C35.2217 41.5843 38.7357 38.7004 41.208 35.0003C43.6803 31.3002 44.9999 26.9501 44.9999 22.5C44.9999 16.5326 42.6294 10.8097 38.4099 6.59009C34.1903 2.37053 28.4673 0 22.4999 0ZM12.7905 30.534C10.8135 30.528 8.83594 30.528 6.85794 30.534C6.82608 30.5301 6.79452 30.5241 6.76345 30.516C6.87745 30.198 6.98545 29.8875 7.09795 29.5785L11.0175 18.825C11.502 17.499 12.6674 16.755 14.0819 16.8675C15.3269 16.9665 16.3919 17.9565 16.6409 19.2585C16.7357 19.7674 16.6885 20.2926 16.5045 20.7765L13.0214 30.345C12.9809 30.45 12.9495 30.5355 12.7905 30.534ZM21.3659 30.3615C21.3284 30.462 21.3029 30.534 21.1679 30.5325C19.1579 30.5325 17.1464 30.5325 15.1079 30.5325L17.1719 24.852C17.9029 22.842 18.6344 20.8325 19.3664 18.8235C19.8089 17.61 20.9489 16.806 22.1624 16.8465C22.7862 16.8562 23.3904 17.0653 23.8868 17.4432C24.3831 17.8211 24.7455 18.3479 24.9209 18.9465C25.1016 19.5305 25.0853 20.1577 24.8744 20.7315C23.7064 23.9405 22.5369 27.1505 21.3659 30.3615ZM36.0899 20.1495C35.1899 20.3835 34.2779 20.6205 33.3674 20.8425C33.2999 20.8547 33.2373 20.8859 33.1868 20.9323C33.1363 20.9788 33.1001 21.0387 33.0824 21.105C31.9694 24.172 30.8564 27.2395 29.7434 30.3075C29.7293 30.3817 29.6862 30.4472 29.6238 30.4896C29.5614 30.5321 29.4846 30.5481 29.4104 30.534C28.4639 30.525 27.5159 30.534 26.5694 30.534H23.7524C23.4524 30.534 23.4524 30.534 23.5559 30.267C24.9749 26.367 26.3944 22.467 27.8144 18.567C28.1024 17.7735 28.3949 16.9815 28.6784 16.1865C28.693 16.1319 28.7227 16.0825 28.7641 16.044C28.8055 16.0055 28.8569 15.9795 28.9124 15.969C30.8309 15.48 32.7479 14.982 34.6679 14.499C35.4169 14.3104 36.21 14.4271 36.8729 14.8233C37.5358 15.2195 38.0141 15.8628 38.2027 16.6117C38.3913 17.3607 38.2746 18.1538 37.8784 18.8167C37.4822 19.4796 36.8388 19.9579 36.0899 20.1465V20.1495Z" fill="currentColor"/>
</svg>
